<svg width="63" height="11" viewBox="0 0 63 11" fill="none" xmlns="http://www.w3.org/2000/svg">
<g clip-path="url(#clip0_1_5013)">
<path d="M5.50009 0.916626C5.65869 0.916626 5.80353 1.00666 5.87372 1.14887L7.06437 3.56099L9.72702 3.95017C9.88392 3.97311 10.0142 4.08311 10.0631 4.23395C10.112 4.38478 10.0711 4.5503 9.95748 4.66094L8.03114 6.53719L8.48576 9.18786C8.51258 9.34418 8.44831 9.50218 8.31998 9.5954C8.19166 9.68862 8.02154 9.7009 7.88116 9.62707L5.50009 8.3749L3.11903 9.62707C2.97865 9.7009 2.80853 9.68862 2.6802 9.5954C2.55188 9.50218 2.48761 9.34418 2.51442 9.18786L2.96904 6.5372L1.0427 4.66094C0.929114 4.5503 0.888167 4.38478 0.937074 4.23395C0.985982 4.08311 1.11627 3.97311 1.27317 3.95017L3.93582 3.56099L5.12647 1.14887C5.19666 1.00666 5.3415 0.916626 5.50009 0.916626Z" fill="#FDC420"/>
</g>
<g clip-path="url(#clip1_1_5013)">
<path d="M18.5001 0.916626C18.6587 0.916626 18.8035 1.00666 18.8737 1.14887L20.0644 3.56099L22.727 3.95017C22.8839 3.97311 23.0142 4.08311 23.0631 4.23395C23.112 4.38478 23.0711 4.5503 22.9575 4.66094L21.0311 6.53719L21.4858 9.18786C21.5126 9.34418 21.4483 9.50218 21.32 9.5954C21.1917 9.68862 21.0215 9.7009 20.8812 9.62707L18.5001 8.3749L16.119 9.62707C15.9787 9.7009 15.8085 9.68862 15.6802 9.5954C15.5519 9.50218 15.4876 9.34418 15.5144 9.18786L15.969 6.5372L14.0427 4.66094C13.9291 4.5503 13.8882 4.38478 13.9371 4.23395C13.986 4.08311 14.1163 3.97311 14.2732 3.95017L16.9358 3.56099L18.1265 1.14887C18.1967 1.00666 18.3415 0.916626 18.5001 0.916626Z" fill="#FDC420"/>
</g>
<g clip-path="url(#clip2_1_5013)">
<path d="M31.5001 0.916626C31.6587 0.916626 31.8035 1.00666 31.8737 1.14887L33.0644 3.56099L35.727 3.95017C35.8839 3.97311 36.0142 4.08311 36.0631 4.23395C36.112 4.38478 36.0711 4.5503 35.9575 4.66094L34.0311 6.53719L34.4858 9.18786C34.5126 9.34418 34.4483 9.50218 34.32 9.5954C34.1917 9.68862 34.0215 9.7009 33.8812 9.62707L31.5001 8.3749L29.119 9.62707C28.9787 9.7009 28.8085 9.68862 28.6802 9.5954C28.5519 9.50218 28.4876 9.34418 28.5144 9.18786L28.969 6.5372L27.0427 4.66094C26.9291 4.5503 26.8882 4.38478 26.9371 4.23395C26.986 4.08311 27.1163 3.97311 27.2732 3.95017L29.9358 3.56099L31.1265 1.14887C31.1967 1.00666 31.3415 0.916626 31.5001 0.916626Z" fill="#FDC420"/>
</g>
<g clip-path="url(#clip3_1_5013)">
<path fill-rule="evenodd" clip-rule="evenodd" d="M44.5001 0.916626C44.6587 0.916626 44.8035 1.00666 44.8737 1.14887L46.0644 3.56099L48.727 3.95017C48.8839 3.97311 49.0142 4.08311 49.0631 4.23395C49.112 4.38478 49.0711 4.5503 48.9575 4.66094L47.0311 6.53719L47.4858 9.18786C47.5126 9.34418 47.4483 9.50218 47.32 9.5954C47.1917 9.68862 47.0215 9.7009 46.8812 9.62707L44.5001 8.3749L42.119 9.62707C41.9787 9.7009 41.8085 9.68862 41.6802 9.5954C41.5519 9.50218 41.4876 9.34418 41.5144 9.18786L41.969 6.5372L40.0427 4.66094C39.9291 4.5503 39.8882 4.38478 39.9371 4.23395C39.986 4.08311 40.1163 3.97311 40.2732 3.95017L42.9358 3.56099L44.1265 1.14887C44.1967 1.00666 44.3415 0.916626 44.5001 0.916626ZM44.5054 7.48749C44.5703 7.48832 44.6349 7.50427 44.694 7.53535L46.5217 8.49649L46.1728 6.46206C46.1496 6.32684 46.1944 6.18887 46.2927 6.09314L47.7716 4.65271L45.7273 4.35391C45.5918 4.3341 45.4746 4.24891 45.414 4.12605L44.5054 2.28544V7.48749Z" fill="#FDC420"/>
</g>
<g clip-path="url(#clip4_1_5013)">
<path d="M57.5001 0.916626C57.6587 0.916626 57.8035 1.00666 57.8737 1.14887L59.0644 3.56099L61.727 3.95017C61.8839 3.97311 62.0142 4.08311 62.0631 4.23395C62.112 4.38478 62.0711 4.5503 61.9575 4.66094L60.0311 6.53719L60.4858 9.18786C60.5126 9.34418 60.4483 9.50218 60.32 9.5954C60.1917 9.68862 60.0215 9.7009 59.8812 9.62707L57.5001 8.3749L55.119 9.62707C54.9787 9.7009 54.8085 9.68862 54.6802 9.5954C54.5519 9.50218 54.4876 9.34418 54.5144 9.18786L54.969 6.5372L53.0427 4.66094C52.9291 4.5503 52.8882 4.38478 52.9371 4.23395C52.986 4.08311 53.1163 3.97311 53.2732 3.95017L55.9358 3.56099L57.1265 1.14887C57.1967 1.00666 57.3415 0.916626 57.5001 0.916626Z" fill="#ACB8BF"/>
</g>
<defs>
<clipPath id="clip0_1_5013">
<rect width="10" height="10" fill="white" transform="translate(0.5 0.5)"/>
</clipPath>
<clipPath id="clip1_1_5013">
<rect width="10" height="10" fill="white" transform="translate(13.5 0.5)"/>
</clipPath>
<clipPath id="clip2_1_5013">
<rect width="10" height="10" fill="white" transform="translate(26.5 0.5)"/>
</clipPath>
<clipPath id="clip3_1_5013">
<rect width="10" height="10" fill="white" transform="translate(39.5 0.5)"/>
</clipPath>
<clipPath id="clip4_1_5013">
<rect width="10" height="10" fill="white" transform="translate(52.5 0.5)"/>
</clipPath>
</defs>
</svg>
