<svg width="31" height="31" viewBox="0 0 31 31" fill="none" xmlns="http://www.w3.org/2000/svg">
<g clip-path="url(#clip0_1_5040)">
<mask id="mask0_1_5040" style="mask-type:alpha" maskUnits="userSpaceOnUse" x="0" y="0" width="30" height="30">
<path fill-rule="evenodd" clip-rule="evenodd" d="M22.4401 4.33375C20.0823 1.93537 16.8665 0.559529 13.4929 0.505671C10.1192 0.451813 6.86067 1.7243 4.42649 4.04617C1.99232 6.36805 0.579543 9.55136 0.495659 12.9033C0.411775 16.2552 1.66357 19.5043 3.9786 21.9436L7.81901 25.931C10.1722 28.3421 13.3899 29.7299 16.7693 29.7916C20.1488 29.8532 23.4155 28.5836 25.8562 26.2599C28.2968 23.9363 29.7132 20.7474 29.7959 17.3896C29.8787 14.0318 28.6211 10.7779 26.2978 8.33831L22.4401 4.33375Z" fill="#FEEF7C"/>
</mask>
<g mask="url(#mask0_1_5040)">
<path fill-rule="evenodd" clip-rule="evenodd" d="M23.3185 7.20853C24.4836 8.1297 25.4345 9.29018 26.1063 10.6105C26.778 11.9308 27.1547 13.3798 27.2106 14.8583C27.0384 20.848 24.1796 24.6814 19.3059 26.3243C13.6744 28.0186 10.0923 26.6666 6.64803 23.1583L6.0625 26.7179C12.0901 30.6369 20.8042 32.5879 26.3323 27.1629C27.7318 25.7634 28.8225 24.0895 29.535 22.248C30.2475 20.4064 30.566 18.4375 30.4705 16.4669C30.3749 14.4962 29.8672 12.5669 28.9798 10.802C28.0924 9.03705 26.8447 7.47519 25.3162 6.21594L23.3013 7.20853H23.3185Z" fill="#FEEF7C"/>
</g>
<mask id="mask1_1_5040" style="mask-type:alpha" maskUnits="userSpaceOnUse" x="1" y="1" width="30" height="30">
<path fill-rule="evenodd" clip-rule="evenodd" d="M23.1463 5.03505C20.7986 2.59772 17.5728 1.18697 14.1784 1.11316C10.784 1.03934 7.49912 2.3085 5.0464 4.64144C2.59369 6.97437 1.17403 10.18 1.09975 13.5531C1.02547 16.9262 2.30264 20.1904 4.65031 22.6277L8.50794 26.6323C10.8612 29.0434 14.0788 30.4312 17.4583 30.4929C20.8377 30.5545 24.1044 29.2849 26.5451 26.9612C28.9858 24.6376 30.4021 21.4487 30.4849 18.0909C30.5676 14.7331 29.31 11.4792 26.9867 9.03961L23.1463 5.03505Z" fill="#5CD3CB"/>
</mask>
<g mask="url(#mask1_1_5040)">
<path fill-rule="evenodd" clip-rule="evenodd" d="M5.0636 24.3562L6.59632 23.0214C3.0659 18.0585 2.9109 10.7681 7.75017 6.76353C10.0908 4.90331 13.0198 3.92877 16.0157 4.01339C19.0116 4.098 21.8801 5.23627 24.1107 7.22559L24.989 5.68538C22.9941 3.50895 20.396 1.96747 17.5216 1.25491C14.6472 0.542342 11.625 0.690526 8.83512 1.68081C-2.20391 5.99342 -0.498973 20.4543 5.04638 24.3562H5.0636Z" fill="#5CD3CB"/>
<path d="M2.68701 15.5257C2.68701 17.1989 3.01865 18.8556 3.66299 20.4015C4.30733 21.9473 5.25175 23.3518 6.44233 24.5349C7.63292 25.7181 9.04634 26.6565 10.6019 27.2968C12.1575 27.9371 13.8247 28.2667 15.5085 28.2667C17.1922 28.2667 18.8595 27.9371 20.415 27.2968C21.9706 26.6565 23.384 25.7181 24.5746 24.5349C25.7652 23.3518 26.7096 21.9473 27.354 20.4015C27.9983 18.8556 28.3299 17.1989 28.3299 15.5257C28.3299 12.1466 26.9791 8.90583 24.5746 6.51642C22.1701 4.12702 18.9089 2.78467 15.5085 2.78467C12.108 2.78467 8.84682 4.12702 6.44233 6.51642C4.03784 8.90583 2.68701 12.1466 2.68701 15.5257ZM11.6078 17.836C11.6777 17.6288 11.6803 17.4051 11.6154 17.1963C11.5506 16.9875 11.4214 16.8042 11.2461 16.6723L7.16462 13.6603C7.07011 13.5983 6.99872 13.5072 6.96143 13.4009C6.92414 13.2946 6.92303 13.1791 6.95825 13.0722C6.99348 12.9652 7.06309 12.8727 7.15639 12.8089C7.24969 12.7451 7.3615 12.7135 7.47461 12.7191H12.3483C12.7961 12.7191 13.2094 12.4281 13.3472 12.0003L15.0004 7.03738C15.0296 6.92788 15.0944 6.83105 15.1848 6.76197C15.2751 6.69288 15.3859 6.65542 15.4999 6.65542C15.6139 6.65542 15.7246 6.69288 15.815 6.76197C15.9053 6.83105 15.9701 6.92788 15.9993 7.03738L17.6698 12.0003C17.8076 12.4281 18.2209 12.7191 18.6686 12.7191H23.5424C23.657 12.7092 23.7717 12.7377 23.8683 12.8C23.9648 12.8623 24.0376 12.9548 24.0752 13.0629C24.1128 13.171 24.113 13.2885 24.0757 13.3967C24.0385 13.505 23.9659 13.5977 23.8696 13.6603L19.788 16.7065C19.4436 16.9632 19.2886 17.4253 19.4264 17.8531L21.028 22.8503C21.0764 22.9587 21.0856 23.0804 21.0539 23.1947C21.0223 23.309 20.9518 23.409 20.8544 23.4775C20.757 23.5461 20.6388 23.579 20.5197 23.5707C20.4007 23.5625 20.2882 23.5135 20.2014 23.4321L16.1371 20.3346C15.954 20.1958 15.7301 20.1206 15.4999 20.1206C15.2696 20.1206 15.0457 20.1958 14.8627 20.3346L10.8328 23.415C10.7455 23.483 10.6386 23.5213 10.5277 23.5242C10.4168 23.5271 10.308 23.4944 10.2172 23.4311C10.1265 23.3678 10.0586 23.2771 10.0237 23.1725C9.98881 23.0679 9.9887 22.9549 10.0234 22.8503L11.6078 17.836Z" fill="black"/>
<path d="M11.6078 17.836C11.6776 17.6288 11.6803 17.4051 11.6154 17.1963C11.5506 16.9875 11.4214 16.8042 11.2461 16.6723L7.16462 13.6603C7.0701 13.5983 6.99871 13.5071 6.96142 13.4009C6.92413 13.2946 6.92302 13.1791 6.95824 13.0721C6.99347 12.9652 7.06309 12.8727 7.15638 12.8089C7.24968 12.7451 7.36149 12.7135 7.4746 12.719H12.3483C12.7961 12.719 13.2094 12.4281 13.3472 12.0003L15.0004 7.03735C15.0296 6.92785 15.0944 6.83102 15.1848 6.76194C15.2751 6.69286 15.3859 6.6554 15.4999 6.6554C15.6138 6.6554 15.7246 6.69286 15.815 6.76194C15.9053 6.83102 15.9701 6.92785 15.9993 7.03735L17.6698 12.0003C17.8076 12.4281 18.2209 12.719 18.6686 12.719H23.5423C23.657 12.7092 23.7717 12.7377 23.8683 12.7999C23.9648 12.8622 24.0376 12.9548 24.0752 13.0629C24.1128 13.171 24.113 13.2885 24.0757 13.3967C24.0385 13.5049 23.9659 13.5977 23.8695 13.6603L19.788 16.7065C19.4436 16.9632 19.2886 17.4253 19.4264 17.8531L21.028 22.8502C21.0764 22.9586 21.0856 23.0803 21.0539 23.1947C21.0223 23.309 20.9518 23.409 20.8544 23.4775C20.757 23.5461 20.6388 23.579 20.5197 23.5707C20.4007 23.5624 20.2882 23.5135 20.2014 23.4321L16.1371 20.3346C15.954 20.1958 15.7301 20.1206 15.4999 20.1206C15.2696 20.1206 15.0457 20.1958 14.8627 20.3346L10.8328 23.415C10.7455 23.483 10.6386 23.5212 10.5277 23.5241C10.4168 23.527 10.308 23.4944 10.2172 23.4311C10.1265 23.3678 10.0586 23.2771 10.0237 23.1725C9.9888 23.0679 9.98869 22.9549 10.0234 22.8502L11.6078 17.836Z" fill="white"/>
</g>
</g>
<defs>
<clipPath id="clip0_1_5040">
<rect width="30" height="30" fill="white" transform="translate(0.5 0.5)"/>
</clipPath>
</defs>
</svg>
