<svg width="31" height="31" viewBox="0 0 31 31" fill="none" xmlns="http://www.w3.org/2000/svg">
<g clip-path="url(#clip0_1_5026)">
<path d="M24.1162 23.0495L30.39 28.25H13.5769C6.35462 28.25 0.5 22.5417 0.5 15.5C0.5 8.45825 6.35462 2.75 13.5769 2.75C20.7992 2.75 26.6539 8.45825 26.6539 15.5C26.6539 18.3252 25.7115 20.936 24.1162 23.0495Z" fill="#F06A22"/>
<path d="M13.5768 19.5981L9.32531 21.7776C9.13762 21.8743 8.90454 21.8038 8.80608 21.6201C8.76685 21.5473 8.753 21.4633 8.76762 21.3823L9.57993 16.7668L6.1407 13.4976C5.98839 13.3528 5.98531 13.1158 6.13377 12.9673C6.193 12.9081 6.26993 12.8698 6.35377 12.8578L11.1068 12.1843L13.2322 7.98505C13.3261 7.79905 13.5568 7.7233 13.7476 7.8148C13.8238 7.85155 13.8845 7.9108 13.9222 7.98505L16.0476 12.1843L20.8007 12.8578C21.0107 12.8878 21.1568 13.0776 21.1261 13.2831C21.1138 13.3648 21.0745 13.4398 21.0138 13.4976L17.5745 16.7668L18.3868 21.3823C18.423 21.5863 18.2822 21.7806 18.073 21.8151C17.9899 21.8293 17.9038 21.8158 17.8292 21.7776L13.5776 19.5981H13.5768Z" fill="white"/>
</g>
<defs>
<clipPath id="clip0_1_5026">
<rect width="30" height="30" fill="white" transform="translate(0.5 0.5)"/>
</clipPath>
</defs>
</svg>
