<svg width="254" height="202" viewBox="0 0 254 202" fill="none" xmlns="http://www.w3.org/2000/svg">
<g clip-path="url(#clip0_1_4450)">
<path d="M41.8687 106.548C41.8687 106.548 27.4927 124.793 30.0077 139.042C30.0077 139.042 31.9365 139.126 33.5378 136.795C35.1392 134.464 29.6082 140.863 35.9513 158.27L38.6693 157.76C39.5044 154.8 53.1009 170.521 76.6919 180.396C102.235 191.088 108.113 185.955 108.113 185.955L56.2709 100.327L41.8687 106.548Z" fill="url(#paint0_linear_1_4450)"/>
<path d="M212.97 105.85C212.97 105.85 228.666 124.79 226.154 139.037C226.154 139.037 224.224 139.121 222.618 136.79C221.013 134.459 226.55 140.857 220.204 158.263L217.488 157.777C216.649 154.818 203.046 170.536 179.445 180.411C153.89 191.082 148.026 185.956 148.026 185.956L199.875 100.327L212.97 105.85Z" fill="url(#paint1_linear_1_4450)"/>
<path d="M46.1052 96.0536C46.1052 96.0536 60.0771 190.701 129.398 191.224C199.783 191.769 203.139 107.283 202.049 99.2032C200.958 91.1237 51.8989 95.1915 46.1052 96.0536Z" fill="url(#paint2_radial_1_4450)"/>
<path d="M64.6362 110.112C64.6362 110.112 71.9854 185.775 130.451 187.818C187.926 189.82 187.936 120.232 187.038 113.589C186.139 106.945 69.398 109.404 64.6362 110.112Z" fill="#007DBC"/>
<path opacity="0.7" d="M56.1812 131.351C56.1812 131.351 55.78 126.677 79.7943 138.016C103.809 149.355 122.733 161.91 146.994 150.139C171.254 138.368 193.26 129.031 199.063 129.309L201.48 115.14L51.0942 117.121L56.1812 131.351Z" fill="#004370"/>
<path d="M220.328 85.5987C222.298 88.3853 223.901 89.4252 223.901 89.4252C223.901 89.4252 219.698 85.1597 219.268 75.6698C218.838 66.1798 212.576 57.5491 212.576 57.5491C216.099 59.0125 218.076 63.8166 218.076 63.8166C216.106 48.4702 206.085 30.3247 206.085 30.3247C227.447 15.3549 218.414 7.40615 218.414 7.40615C223.832 3.90345 223.556 0.494166 223.556 0.494166C205.359 -0.919365 194.173 0.0925235 169.051 11.7028C157.917 16.8401 143.003 20.7319 126.645 22.2887C110.284 20.7319 95.3706 16.8401 84.2365 11.7028C59.0985 0.104977 47.9118 -0.906911 29.7314 0.494166C29.7314 0.494166 29.4556 3.90345 34.8733 7.40615C34.8733 7.40615 25.8274 15.3549 47.2059 30.3247C47.2059 30.3247 37.1947 48.4702 35.2115 63.8166C35.2115 63.8166 37.1816 59.0125 40.7113 57.5491C40.7113 57.5491 34.4497 66.1829 34.0196 75.6698C33.5895 85.1566 29.3867 89.4252 29.3867 89.4252C29.3867 89.4252 30.9726 88.3853 32.9591 85.5987C32.9591 85.5987 32.1677 90.4371 27.5742 92.52C27.5742 92.52 30.0434 96.9257 32.4698 100.705C35.7861 105.868 48.4996 119.732 82.145 135.707C91.8902 140.334 107.391 150.475 126.406 150.827H126.662H126.915C145.929 150.475 161.43 140.334 171.175 135.707C204.791 119.732 217.501 105.868 220.818 100.718C223.244 96.9381 225.713 92.5325 225.713 92.5325C221.12 90.4433 220.328 85.5987 220.328 85.5987Z" fill="url(#paint3_radial_1_4450)"/>
<path d="M223.573 0.493615C205.373 -0.918341 194.184 0.0924207 169.058 11.6897C157.922 16.8244 143.006 20.7088 126.645 22.2639C110.281 20.7088 95.3652 16.8244 84.2292 11.6897C59.0869 0.10486 47.8983 -0.905901 29.7148 0.493615C29.7148 0.493615 29.4389 3.91465 34.8575 7.3979C34.8575 7.3979 38.5389 18.2581 61.1295 30.7232C56.9526 35.0808 53.5179 40.0281 50.9491 45.387C46.9262 53.9303 37.0512 80.8849 50.5386 99.682C64.026 118.479 93.2306 134.07 105.71 138.495C111.897 140.697 119.023 142.37 126.399 142.722V142.747H126.655H126.908V142.722C134.274 142.37 141.4 140.697 147.597 138.495C160.05 134.07 189.275 118.476 202.769 99.682C216.262 80.888 206.381 53.9427 202.384 45.3808C199.815 40.0218 196.381 35.0746 192.204 30.7169C214.798 18.2581 218.476 7.39167 218.476 7.39167C223.849 3.8991 223.573 0.493615 223.573 0.493615Z" fill="url(#paint4_radial_1_4450)"/>
<path opacity="0.2" d="M33.2619 6.23963L34.8414 7.3802C34.8414 7.3802 40.1712 13.6176 75.9622 24.2246C111.753 34.8316 120.781 42.1101 122.945 58.7743C125.109 75.4384 126.495 63.4515 126.885 58.7743C127.276 54.097 129.795 38.9805 155.074 31.4254C182.064 23.3451 218.43 7.39263 218.43 7.39263C223.849 3.89633 223.573 0.493264 223.573 0.493264C205.373 -0.917687 194.185 0.0923552 169.06 11.6814C157.925 16.8093 143.009 20.6941 126.649 22.248C110.285 20.6941 95.3699 16.8093 84.2343 11.6814C59.0929 0.104787 47.9047 -0.905256 29.7218 0.493264C29.6989 0.480833 29.4854 3.17842 33.2619 6.23963Z" fill="#00D6FD"/>
<g opacity="0.5">
<path opacity="0.5" d="M86.2728 105.948C84.848 105.948 83.4248 105.857 82.0128 105.677C73.1006 104.537 65.2098 99.9432 59.8329 92.7456C54.4559 85.5479 52.1628 76.55 53.4609 67.4835C55.9056 50.4315 70.5242 37.584 87.4688 37.584C88.8936 37.584 90.3168 37.6747 91.7288 37.8549C110.149 40.2127 122.956 57.3488 120.277 76.0485C117.836 93.0882 103.204 105.948 86.2728 105.948Z" fill="#1169B0"/>
<path opacity="0.5" d="M87.472 36.6372V38.5059C88.8517 38.5058 90.2299 38.5943 91.5969 38.7707C100.239 39.8763 107.869 44.3301 113.088 51.3098C118.307 58.2895 120.551 67.0694 119.286 75.9146C116.907 92.5058 102.71 105.017 86.2595 105.017C84.8788 105.017 83.4996 104.929 82.1313 104.755C64.2509 102.466 51.8201 85.8033 54.4295 67.6113C56.8049 51.0233 71.0018 38.509 87.4555 38.509V36.6403L87.472 36.6372ZM87.4555 36.6403C70.2078 36.6403 55.0126 49.6124 52.4691 67.3621C49.7114 86.6037 62.8738 104.176 81.8644 106.605C83.3211 106.792 84.7895 106.886 86.2595 106.886C103.504 106.886 118.702 93.9136 121.243 76.1638C124 56.9222 110.838 39.3531 91.8473 36.9206C90.3918 36.7335 88.9245 36.6403 87.4555 36.6403Z" fill="#00365B"/>
</g>
<path d="M118.091 56.1692C117.948 55.8407 117.799 55.532 117.646 55.2134L107.4 60.0647L107.768 60.6L118.091 56.1692Z" fill="#00557F"/>
<path d="M114.582 50.5L105.262 56.7057L105.424 57.2333L115.24 51.4049C115.024 51.0951 114.808 50.7945 114.582 50.5Z" fill="#00557F"/>
<path d="M67.4869 62.6878L56.6454 55.2134C56.4515 55.5625 56.2642 55.9179 56.0833 56.2732L67.0508 63.2934L67.4869 62.6878Z" fill="#00557F"/>
<path d="M65.3488 72.1864L65.322 71.3733L51.8069 72.6437C51.8069 73.1201 51.827 73.5966 51.847 74.0666L65.3488 72.1864Z" fill="#00557F"/>
<path d="M109.538 45.4621C109.289 45.2353 109.033 45.0181 108.778 44.7977C108.605 44.6795 108.445 44.5581 108.249 44.4399L100.985 53.4609L101.696 53.8666L109.538 45.4621Z" fill="#00557F"/>
<path d="M65.8973 65.9867L66.0616 65.4637L53.5029 63.2933C53.4063 63.6888 53.3161 64.0876 53.2324 64.4929L65.8973 65.9867Z" fill="#00557F"/>
<path d="M70.3379 84.2089L69.6842 83.4933L57.5088 90.9912C57.7746 91.4097 58.047 91.8281 58.3259 92.2466L70.3379 84.2089Z" fill="#00557F"/>
<path d="M66.2632 78.1067L53.2324 81.5493C53.3546 81.9749 53.4831 82.4004 53.6214 82.82L66.7743 78.7479L66.2632 78.1067Z" fill="#00557F"/>
<path d="M76.4441 49.8267L79.6035 48.7967L75.1956 39.0533C73.2583 39.7473 71.3938 40.6015 69.6252 41.6054L76.4441 49.8267Z" fill="#00557F"/>
<path d="M110.749 74.0667L110.251 74.2538L120.776 76.76C120.814 76.5269 120.853 76.2907 120.885 76.0514C120.907 75.8949 120.92 75.7446 120.942 75.579L110.749 74.0667Z" fill="#00557F"/>
<path d="M88.8688 36.3933C86.9655 36.3126 85.0582 36.3786 83.167 36.5906L84.607 47.8067L88.2532 47.6594L88.8688 36.3933Z" fill="#00557F"/>
<path d="M76.7524 38.3439L80.6172 48.48L83.8797 47.9087L82.4635 37.0333C80.5216 37.3133 78.6104 37.7519 76.7524 38.3439Z" fill="#00557F"/>
<path d="M103.124 41.2893C102.712 41.0948 102.29 40.9002 101.866 40.7088L101.111 40.4L96.709 50.1449L97.7246 50.5L103.124 41.2893Z" fill="#00557F"/>
<path d="M95.2835 38.0439L94.3468 37.7067L92.4326 48.2746L93.1165 48.48L95.2835 38.0439Z" fill="#00557F"/>
<path d="M110.69 69.4137L110.251 70.7L120.942 70.2847C120.942 69.7487 120.919 69.2127 120.889 68.6801L110.69 69.4137Z" fill="#00557F"/>
<path d="M105.135 83.4933L104.549 84.0383L115.16 90.8999C115.432 90.4962 115.696 90.0925 115.953 89.6887L105.135 83.4933Z" fill="#00557F"/>
<path d="M109.538 96.9601C110.541 96.1053 111.492 95.2063 112.389 94.2667L109.538 96.9601Z" fill="#00557F"/>
<path d="M108.44 78.78L108.113 79.4579L119.051 83.4934C119.215 83.0499 119.379 82.6033 119.516 82.1535L108.44 78.78Z" fill="#00557F"/>
<path d="M83.8797 91.8133L82.6327 91.5734L81.0288 106.177C81.1009 106.177 81.1694 106.199 81.2379 106.205C81.8974 106.282 82.5534 106.341 83.2057 106.387L83.8797 91.8133Z" fill="#00557F"/>
<path d="M108.825 63.9361L108.918 64.64L120.229 62.5283C120.134 62.1078 120.031 61.6894 119.921 61.2733L108.825 63.9361Z" fill="#00557F"/>
<path d="M73.9015 88.0307L72.9248 87.5333L62.4978 97.2222C62.8821 97.593 63.2749 97.9545 63.6763 98.3067L73.9015 88.0307Z" fill="#00557F"/>
<path d="M70.2417 57.0365C69.9065 56.9122 64.0457 51.8245 60.9653 49.1533C60.512 49.6768 60.0726 50.2155 59.647 50.7694L69.383 57.9066C69.383 57.9066 70.6981 57.2093 70.2417 57.0365Z" fill="#00557F"/>
<path d="M72.4393 52.9276L75.327 51.0733L68.1277 42.42C66.6469 43.347 65.2417 44.3726 63.9233 45.4889L71.4342 53.1934L72.4393 52.9276Z" fill="#00557F"/>
<path d="M100.452 87.5333L99.5598 87.7776L108.071 98.3067C108.572 97.8901 109.067 97.4642 109.538 97.0226L100.452 87.5333Z" fill="#00557F"/>
<path d="M77.4654 90.5347L76.7548 90.2267L71.0508 103.139C71.4459 103.333 71.8474 103.518 72.2521 103.693L77.4654 90.5347Z" fill="#00557F"/>
<path d="M91.1012 92.2467L90.2944 92.2777L92.3161 106.387C92.8332 106.288 93.3472 106.177 93.8581 106.056L91.1012 92.2467Z" fill="#00557F"/>
<path d="M96.4882 90.9L95.2834 91.2261L100.604 103.693C101.217 103.41 101.819 103.11 102.411 102.792L96.4882 90.9Z" fill="#00557F"/>
<path d="M106.107 87.4369C116.328 77.7804 116.328 62.1241 106.107 52.4676C95.8853 42.8111 79.3129 42.8111 69.0914 52.4676C58.8699 62.1241 58.8699 77.7804 69.0914 87.4369C79.3129 97.0934 95.8852 97.0934 106.107 87.4369Z" fill="#00557F"/>
<path d="M103.958 86.1578C113.443 77.1976 113.443 62.6703 103.958 53.7101C94.474 44.75 79.0967 44.75 69.6123 53.7101C60.1279 62.6703 60.1279 77.1976 69.6123 86.1578C79.0967 95.1179 94.474 95.1179 103.958 86.1578Z" fill="url(#paint5_radial_1_4450)"/>
<path opacity="0.5" d="M67.5884 78.2381C64.9596 69.5972 68.1545 60.3141 75.6595 54.787C83.1644 49.26 93.4719 48.5992 101.698 53.1178C94.9908 47.6787 85.6043 46.2924 77.4603 49.5382C69.3162 52.784 63.816 60.1033 63.2575 68.4383C62.6989 76.7732 67.1782 84.6895 74.824 88.88C71.359 86.0806 68.8426 82.3795 67.5884 78.2381Z" fill="white"/>
<g opacity="0.5">
<path opacity="0.5" d="M165.869 105.948C148.924 105.948 134.306 93.0882 131.861 76.0485C130.563 66.979 132.823 58.006 138.233 50.7865C143.643 43.567 151.501 38.998 160.413 37.8549C161.825 37.6746 163.248 37.584 164.673 37.584C181.614 37.584 196.236 50.4439 198.678 67.4835C201.373 86.1926 188.55 103.323 170.129 105.677C168.717 105.857 167.294 105.948 165.869 105.948Z" fill="#1169B0"/>
<path opacity="0.5" d="M164.673 38.5059C181.124 38.5059 195.314 51.017 197.699 67.6082C198.964 76.4441 196.763 85.1804 191.502 92.213C186.24 99.2456 178.639 103.634 169.997 104.752C168.629 104.926 167.25 105.014 165.869 105.014C149.415 105.014 135.228 92.5027 132.843 75.9115C130.237 57.7195 142.665 41.0599 160.545 38.7707C161.913 38.594 163.292 38.5059 164.673 38.5059ZM164.673 36.6372C163.203 36.6372 161.735 36.7304 160.278 36.9175C141.287 39.35 128.125 56.9191 130.883 76.1607C133.426 93.9136 148.621 106.882 165.869 106.882C167.338 106.882 168.805 106.789 170.261 106.602C189.252 104.173 202.414 86.6006 199.656 67.359C197.116 49.6061 181.918 36.6372 164.673 36.6372Z" fill="#00365B"/>
</g>
<path d="M133.771 56.1692C133.914 55.8407 134.066 55.532 134.219 55.2134L144.462 60.0647L144.077 60.6L133.771 56.1692Z" fill="#00557F"/>
<path d="M137.989 50.5L147.313 56.7057L147.15 57.2333L137.334 51.4049C137.55 51.0951 137.766 50.7945 137.989 50.5Z" fill="#00557F"/>
<path d="M184.375 62.6878L195.219 55.2134C195.413 55.5625 195.597 55.9179 195.778 56.2732L184.821 63.2934L184.375 62.6878Z" fill="#00557F"/>
<path d="M186.513 72.1864L186.543 71.3733L200.055 72.6437C200.055 73.1201 200.035 73.5966 200.015 74.0666L186.513 72.1864Z" fill="#00557F"/>
<path d="M142.324 45.4621C142.57 45.2353 142.829 45.0181 143.081 44.7977C143.257 44.6795 143.43 44.5581 143.61 44.4399L150.876 53.4609L150.169 53.8666L142.324 45.4621Z" fill="#00557F"/>
<path d="M186.68 65.9867L186.513 65.4637L199.075 63.2933C199.168 63.6888 199.258 64.0876 199.342 64.4929L186.68 65.9867Z" fill="#00557F"/>
<path d="M181.524 84.2089L182.177 83.4933L194.353 90.9912C194.088 91.4118 193.817 91.8292 193.533 92.2466L181.524 84.2089Z" fill="#00557F"/>
<path d="M185.598 78.1067L198.629 81.5493C198.504 81.9749 198.379 82.4004 198.237 82.82L185.087 78.7479L185.598 78.1067Z" fill="#00557F"/>
<path d="M175.414 49.8267L172.258 48.7967L176.666 39.0533C178.603 39.7485 180.467 40.6027 182.237 41.6054L175.414 49.8267Z" fill="#00557F"/>
<path d="M141.113 74.0667L141.611 74.2538L131.083 76.76C131.045 76.5269 131.006 76.2907 130.974 76.0514C130.952 75.8949 130.939 75.7446 130.92 75.579L141.113 74.0667Z" fill="#00557F"/>
<path d="M162.993 36.3933C164.896 36.3126 166.804 36.3786 168.695 36.5906L167.255 47.8067L163.602 47.6688L162.993 36.3933Z" fill="#00557F"/>
<path d="M175.822 38.3439L171.957 48.48L168.695 47.9087L170.111 37.0333C172.053 37.3129 173.964 37.7515 175.822 38.3439Z" fill="#00557F"/>
<path d="M148.738 41.2893C149.15 41.0948 149.572 40.9002 149.996 40.7088L150.751 40.4L155.153 50.1449L154.14 50.5L148.738 41.2893Z" fill="#00557F"/>
<path d="M157.291 38.0439L158.227 37.7067L160.142 48.2746L159.459 48.48L157.291 38.0439Z" fill="#00557F"/>
<path d="M141.172 69.4137L141.611 70.7L130.92 70.2847C130.92 69.7487 130.943 69.2127 130.973 68.6801L141.172 69.4137Z" fill="#00557F"/>
<path d="M146.727 83.4933L147.313 84.0383L136.702 90.8999C136.43 90.4962 136.166 90.0925 135.909 89.6887L146.727 83.4933Z" fill="#00557F"/>
<path d="M142.324 96.9601C141.321 96.1053 140.37 95.2063 139.473 94.2667L142.324 96.9601Z" fill="#00557F"/>
<path d="M143.421 78.78L143.749 79.4579L132.808 83.4934C132.647 83.0499 132.48 82.6033 132.345 82.1535L143.421 78.78Z" fill="#00557F"/>
<path d="M167.982 91.8133L169.231 91.5734L170.833 106.177C170.764 106.177 170.696 106.199 170.624 106.205C169.967 106.282 169.31 106.341 168.657 106.387L167.982 91.8133Z" fill="#00557F"/>
<path d="M143.036 63.9361L142.94 64.64L131.633 62.5283C131.729 62.1067 131.829 61.6883 131.938 61.2733L143.036 63.9361Z" fill="#00557F"/>
<path d="M177.96 88.0307L178.937 87.5333L189.364 97.2222C188.979 97.593 188.589 97.9545 188.185 98.3067L177.96 88.0307Z" fill="#00557F"/>
<path d="M181.62 57.0365C181.955 56.9122 187.814 51.8245 190.894 49.1533C191.351 49.6768 191.792 50.2155 192.215 50.7694L182.482 57.9066C182.482 57.9066 181.164 57.2093 181.62 57.0365Z" fill="#00557F"/>
<path d="M179.422 52.9276L176.535 51.0733L183.732 42.42C185.213 43.3477 186.619 44.3733 187.939 45.4889L180.423 53.1934L179.422 52.9276Z" fill="#00557F"/>
<path d="M151.409 87.5333L152.302 87.7776L143.788 98.3067C143.29 97.8901 142.792 97.4642 142.324 97.0226L151.409 87.5333Z" fill="#00557F"/>
<path d="M174.397 90.5348L175.107 90.2267L180.811 103.139C180.417 103.333 180.012 103.518 179.608 103.693L174.397 90.5348Z" fill="#00557F"/>
<path d="M161.476 92.2467L162.28 92.2777L160.257 106.387C159.739 106.288 159.225 106.176 158.717 106.056L161.476 92.2467Z" fill="#00557F"/>
<path d="M155.373 90.9L156.578 91.2261L151.258 103.693C150.649 103.41 150.044 103.109 149.451 102.792L155.373 90.9Z" fill="#00557F"/>
<path d="M182.882 87.4381C193.103 77.7816 193.103 62.1254 182.882 52.4689C172.66 42.8124 156.088 42.8124 145.867 52.4689C135.645 62.1254 135.645 77.7816 145.867 87.4381C156.088 97.0946 172.66 97.0946 182.882 87.4381Z" fill="#00557F"/>
<path d="M182.363 86.1567C191.847 77.1965 191.847 62.6692 182.363 53.7091C172.879 44.7489 157.501 44.7489 148.017 53.7091C138.532 62.6692 138.532 77.1965 148.017 86.1567C157.501 95.1168 172.879 95.1168 182.363 86.1567Z" fill="url(#paint6_radial_1_4450)"/>
<path opacity="0.5" d="M184.274 78.2381C186.902 69.5972 183.707 60.3141 176.202 54.787C168.698 49.26 158.39 48.5992 150.164 53.1178C156.871 47.6787 166.258 46.2924 174.402 49.5382C182.546 52.784 188.046 60.1033 188.604 68.4383C189.163 76.7732 184.684 84.6895 177.038 88.88C180.505 86.0823 183.022 82.3806 184.274 78.2381Z" fill="white"/>
<path d="M123.558 53.1624C123.413 53.9064 121.991 41.0397 105.528 34.1403C86.977 26.3795 64.0281 22.2152 48.6114 14.6489C33.1947 7.08264 53.7964 18.6836 75.6392 21.002C97.4819 23.3203 112.181 26.6604 115.72 25.0583C115.16 25.7888 114.431 26.3905 113.587 26.8179C112.214 27.4939 114.522 27.71 115.917 25.7776L116.596 25.9134C116.596 25.9134 116.224 28.8893 116.655 28.9541C117.086 29.0189 117.135 27.2038 117.135 27.2038C117.135 27.2038 125.26 44.5929 123.558 53.1624Z" fill="#1DA7DD"/>
<path d="M127.588 53.1624C127.733 53.9064 129.155 41.0397 145.62 34.1403C164.172 26.3795 187.129 22.2152 202.54 14.6489C217.951 7.08264 197.355 18.6836 175.51 21.002C153.666 23.3203 138.966 26.6604 135.427 25.0583C135.987 25.7888 136.716 26.3905 137.56 26.8179C138.933 27.4939 136.625 27.71 135.229 25.7776L134.551 25.9134C134.551 25.9134 134.923 28.8893 134.492 28.9541C134.06 29.0189 134.011 27.2038 134.011 27.2038C134.011 27.2038 125.899 44.5929 127.588 53.1624Z" fill="#1DA7DD"/>
<path opacity="0.7" d="M104.549 185.669C104.549 185.669 107.498 181.099 114.322 181.127C124.747 181.148 128.41 189.194 131.938 189.456C135.467 189.718 136.725 182.336 146.803 181.432C156.88 180.527 159.429 184.737 159.429 184.737C159.429 184.737 150.105 190.112 130.969 190.526C114.856 190.98 104.549 185.669 104.549 185.669Z" fill="#004370"/>
<path d="M105.974 186.763C105.974 186.763 111.357 182.007 119.254 183.404C127.151 184.801 128.069 190.799 128.069 190.799C128.069 190.799 122.966 202.597 120.794 201.976C118.622 201.355 117.613 197.63 113.884 200.114C110.156 202.597 109.625 201.355 105.974 186.763Z" fill="url(#paint7_linear_1_4450)"/>
<path opacity="0.5" d="M119.065 91.7141C119.065 91.7141 117.039 96.6337 114.919 99.2001C112.799 101.766 113.454 104.768 119.319 114.376C125.184 123.983 124.428 127.674 128.662 121.617C132.895 115.56 138.656 103.192 137.995 100.685C137.334 98.1785 134.413 98.1159 132.459 92.04C130.505 85.9642 122.631 84.4726 119.065 91.7141Z" fill="#1169B0"/>
<path d="M155.866 186.763C155.866 186.763 150.485 182.007 142.587 183.404C134.689 184.801 133.771 190.799 133.771 190.799C133.771 190.799 138.871 202.597 141.047 201.976C143.222 201.355 144.226 197.63 147.958 200.114C151.69 202.597 152.228 201.355 155.866 186.763Z" fill="url(#paint8_linear_1_4450)"/>
<path d="M120.871 90.271C118.98 93.2577 115.434 98.5404 117.097 102.992C118.254 106.082 122.369 121.037 125.845 121.199C129.321 121.361 133.466 105.332 134.221 102.619C135.606 97.6412 131.15 91.8141 129.317 89.6798C127.485 87.5456 122.492 87.7198 120.871 90.271Z" fill="url(#paint9_linear_1_4450)"/>
<path opacity="0.3" d="M127.879 89.7047C127.08 89.0259 123.909 88.2506 122.621 89.7047C121.333 91.1589 117.775 98.4855 118.113 100.528C118.451 102.571 124.276 119.285 125.705 119.18C127.135 119.074 121.52 103.197 122.991 100.083C124.463 96.9691 131.633 94.7241 131.633 94.7241C131.633 94.7241 129.897 91.4142 127.879 89.7047Z" fill="white"/>
<path d="M121.751 94.4843C120.345 96.4367 119.422 98.7423 119.524 100.261C119.626 101.779 121.433 107.358 121.751 107.048C122.069 106.738 119.419 99.8859 122.918 97.0627C126.418 94.2395 123.256 92.4111 121.751 94.4843Z" fill="white"/>
<path opacity="0.3" d="M112.611 198.633C110.969 198.633 109.812 193.946 108.963 189.976C108.115 186.007 111.239 183.586 116.765 183.838C122.291 184.09 126.589 188.245 125.848 189.347C125.106 190.449 120.809 186.671 117.838 188.717C114.867 190.763 116.846 198.633 112.611 198.633Z" fill="white"/>
<path opacity="0.3" d="M149.426 185.717C144.91 184.725 138.068 184.814 136.291 188.184C134.513 191.553 139.415 200.566 141.381 199.95C143.348 199.333 140.78 190.178 146.565 189.361C152.35 188.544 152.906 186.479 149.426 185.717Z" fill="white"/>
<path d="M112.284 190.582C114.593 190.074 113.962 196.566 112.537 196.613C111.113 196.66 109.974 191.092 112.284 190.582Z" fill="white"/>
<path d="M139.127 192.608C140.34 192.1 142.89 197.316 140.839 197.91C138.789 198.504 136.728 193.625 139.127 192.608Z" fill="white"/>
<path d="M92.1352 77.6921C100.104 75.0409 104.272 66.742 101.445 59.1561C98.6169 51.5701 89.8643 47.5698 81.8951 50.2211C73.9259 52.8723 69.7579 61.1712 72.5856 68.7571C75.4134 76.3431 84.166 80.3434 92.1352 77.6921Z" fill="url(#paint10_radial_1_4450)" stroke="#008E07" stroke-width="2"/>
<path opacity="0.5" d="M96.7363 64.0892C99.2388 59.4161 97.2963 53.6927 92.3976 51.3054C87.499 48.9182 81.4992 50.7713 78.9967 55.4443C76.4943 60.1174 78.4368 65.8409 83.3354 68.2281C88.2341 70.6153 94.2339 68.7623 96.7363 64.0892Z" fill="#3D9926"/>
<path d="M89.6601 67.0126C93.9592 66.0778 96.6499 61.9955 95.67 57.8944C94.6902 53.7933 90.4107 51.2265 86.1117 52.1612C81.8126 53.096 79.1219 57.1783 80.1018 61.2794C81.0817 65.3805 85.3611 67.9473 89.6601 67.0126Z" fill="#102023"/>
<path opacity="0.3" d="M93.4226 59.9516C96.7198 59.0573 98.5985 55.7192 97.6189 52.4958C96.6392 49.2724 93.1721 47.3844 89.8749 48.2788C86.5777 49.1732 84.699 52.5112 85.6786 55.7346C86.6583 58.958 90.1254 60.846 93.4226 59.9516Z" fill="white"/>
<path d="M87.9351 58.4119C88.9882 59.4755 91.2904 59.0576 93.0772 57.4785C94.8639 55.8994 95.4587 53.7572 94.4056 52.6937C93.3525 51.6301 91.0503 52.048 89.2635 53.6271C87.4767 55.2062 86.882 57.3484 87.9351 58.4119Z" fill="white"/>
<path d="M169.823 77.6921C177.792 75.0409 181.96 66.742 179.132 59.1561C176.305 51.5701 167.552 47.5698 159.583 50.2211C151.614 52.8723 147.446 61.1712 150.273 68.7571C153.101 76.3431 161.854 80.3434 169.823 77.6921Z" fill="url(#paint11_radial_1_4450)" stroke="#008E07" stroke-width="2"/>
<path opacity="0.5" d="M174.424 64.0892C176.926 59.4161 174.984 53.6927 170.085 51.3054C165.187 48.9182 159.187 50.7713 156.684 55.4443C154.182 60.1174 156.125 65.8409 161.023 68.2281C165.922 70.6153 171.922 68.7623 174.424 64.0892Z" fill="#3D9926"/>
<path d="M167.348 67.0126C171.647 66.0778 174.337 61.9955 173.358 57.8944C172.378 53.7933 168.098 51.2265 163.799 52.1612C159.5 53.096 156.809 57.1783 157.789 61.2794C158.769 65.3805 163.049 67.9473 167.348 67.0126Z" fill="#102023"/>
<path opacity="0.3" d="M171.11 59.9516C174.408 59.0573 176.286 55.7192 175.307 52.4958C174.327 49.2724 170.86 47.3844 167.563 48.2788C164.265 49.1732 162.387 52.5112 163.366 55.7346C164.346 58.958 167.813 60.846 171.11 59.9516Z" fill="white"/>
<path d="M165.623 58.4119C166.676 59.4755 168.978 59.0576 170.765 57.4785C172.552 55.8994 173.146 53.7572 172.093 52.6937C171.04 51.6301 168.738 52.048 166.951 53.6271C165.164 55.2062 164.57 57.3484 165.623 58.4119Z" fill="white"/>
</g>
<defs>
<linearGradient id="paint0_linear_1_4450" x1="33.4831" y1="168.513" x2="66.8936" y2="153.227" gradientUnits="userSpaceOnUse">
<stop stop-color="#0084FF"/>
<stop offset="1" stop-color="#00407D"/>
</linearGradient>
<linearGradient id="paint1_linear_1_4450" x1="214.233" y1="167.876" x2="186.101" y2="152.103" gradientUnits="userSpaceOnUse">
<stop stop-color="#0084FF"/>
<stop offset="1" stop-color="#00407D"/>
</linearGradient>
<radialGradient id="paint2_radial_1_4450" cx="0" cy="0" r="1" gradientUnits="userSpaceOnUse" gradientTransform="translate(95.0185 146.526) scale(58.6989 55.4543)">
<stop stop-color="#00C5FF"/>
<stop offset="0.3" stop-color="#00A4E5"/>
<stop offset="1" stop-color="#0056A8"/>
</radialGradient>
<radialGradient id="paint3_radial_1_4450" cx="0" cy="0" r="1" gradientUnits="userSpaceOnUse" gradientTransform="translate(107.457 75.4207) scale(89.8447 84.8785)">
<stop stop-color="#00C5FF"/>
<stop offset="1" stop-color="#0056A8"/>
</radialGradient>
<radialGradient id="paint4_radial_1_4450" cx="0" cy="0" r="1" gradientUnits="userSpaceOnUse" gradientTransform="translate(102.121 68.4572) scale(76.4319 72.207)">
<stop stop-color="#00C5FF"/>
<stop offset="1" stop-color="#0056A8"/>
</radialGradient>
<radialGradient id="paint5_radial_1_4450" cx="0" cy="0" r="1" gradientUnits="userSpaceOnUse" gradientTransform="translate(91.9858 60.418) rotate(-43.3719) scale(35.7875 35.7298)">
<stop stop-color="white"/>
<stop offset="1" stop-color="#C9C8C8"/>
</radialGradient>
<radialGradient id="paint6_radial_1_4450" cx="0" cy="0" r="1" gradientUnits="userSpaceOnUse" gradientTransform="translate(159.943 60.0344) rotate(-43.3719) scale(35.7875 35.7298)">
<stop stop-color="white"/>
<stop offset="1" stop-color="#C9C8C8"/>
</radialGradient>
<linearGradient id="paint7_linear_1_4450" x1="105.987" y1="192.572" x2="128.082" y2="192.572" gradientUnits="userSpaceOnUse">
<stop stop-color="#F6C100"/>
<stop offset="0.52" stop-color="#FFC400"/>
<stop offset="0.99" stop-color="#FFAA00"/>
</linearGradient>
<linearGradient id="paint8_linear_1_4450" x1="155.869" y1="192.572" x2="133.771" y2="192.572" gradientUnits="userSpaceOnUse">
<stop stop-color="#F6C100"/>
<stop offset="0.52" stop-color="#FFC400"/>
<stop offset="0.99" stop-color="#FFAA00"/>
</linearGradient>
<linearGradient id="paint9_linear_1_4450" x1="116.667" y1="104.704" x2="134.483" y2="104.704" gradientUnits="userSpaceOnUse">
<stop stop-color="#F6C100"/>
<stop offset="0.52" stop-color="#FFC400"/>
<stop offset="0.99" stop-color="#FFAA00"/>
</linearGradient>
<radialGradient id="paint10_radial_1_4450" cx="0" cy="0" r="1" gradientUnits="userSpaceOnUse" gradientTransform="translate(77.9336 59.3409) rotate(-18.4018) scale(27.8745 26.6498)">
<stop stop-color="#41FF02"/>
<stop offset="1" stop-color="#008A17"/>
</radialGradient>
<radialGradient id="paint11_radial_1_4450" cx="0" cy="0" r="1" gradientUnits="userSpaceOnUse" gradientTransform="translate(155.621 59.3409) rotate(-18.4018) scale(27.8745 26.6498)">
<stop stop-color="#41FF02"/>
<stop offset="1" stop-color="#008A17"/>
</radialGradient>
<clipPath id="clip0_1_4450">
<rect width="254" height="202" fill="white"/>
</clipPath>
</defs>
</svg>
