<svg width="67" height="22" viewBox="0 0 67 22" fill="none" xmlns="http://www.w3.org/2000/svg">
<path d="M27.9058 0.4227L23.3463 21.8586H28.8715L33.2926 0.4227H27.9058ZM19.8925 0.4227L14.2289 14.948L11.8808 2.53771C11.604 1.1267 10.4998 0.4227 9.39419 0.4227H0.138393L0 0.9868C1.9345 1.4095 4.00588 2.11501 5.38831 2.82051C6.21716 3.24321 6.35556 3.66742 6.63234 4.65422L10.915 21.7187H16.717L25.5591 0.2828H19.8955V0.42421L19.8925 0.4227ZM62.8576 0.4227H58.1612C57.0556 0.4227 56.2267 0.9868 55.8131 1.97361L47.6629 21.8586H53.3265L54.4321 18.6154H61.3398L62.0302 21.8586H67.0034L62.8591 0.4227H62.8576ZM56.2267 14.244L59.1285 6.2051L60.7862 14.244H56.2267ZM40.477 6.3465C40.477 5.64103 41.1675 4.79562 42.8252 4.51282C43.654 4.37142 45.7269 4.37142 48.2135 5.49962L49.1807 0.9868C47.9367 0.5641 46.1421 0 44.0692 0C38.6809 0 34.9518 2.96191 34.9518 7.052C34.9518 10.1554 37.7151 11.8477 39.6481 12.8345C41.721 13.8213 42.4115 14.5268 42.4115 15.5136C42.4115 16.9246 40.7538 17.6286 39.0961 17.6286C36.3327 17.6286 34.8134 16.9231 33.5709 16.2176L32.6036 20.8718C33.8477 21.4359 36.1958 22 38.6824 22C44.346 22 48.0766 19.1795 48.0766 14.6667C48.0766 9.3069 40.3401 8.8842 40.4785 6.3465H40.477Z" fill="#BFDFFF"/>
</svg>
