<svg width="51" height="50" viewBox="0 0 51 50" fill="none" xmlns="http://www.w3.org/2000/svg">
<g clip-path="url(#clip0_1_5363)">
<path d="M24.667 16.667H44.667V18.334H24.667V16.667ZM25.5 11.667H45.5V13.334H25.5V11.667ZM26.333 6.667H46.333V8.334H26.333V6.667ZM28 21.667H43V23.334H28V21.667ZM29.667 26.667H42.167V28.334H29.667V26.667ZM24.667 31.667H41.334V33.334H24.667V31.667Z" fill="#1799E5"/>
<path d="M50.293 0.284C50.2147 0.194995 50.1185 0.123645 50.0105 0.0746819C49.9026 0.0257189 49.7855 0.000262105 49.667 0H23C22.582 0 22.23 0.31 22.174 0.723L18.694 26.825L15.914 28.447C15.7881 28.5204 15.6836 28.6255 15.611 28.7518C15.5384 28.8781 15.5001 29.0213 15.5 29.167V37.988L11.578 41.911C11.4977 41.9913 11.4347 42.0872 11.3928 42.1927C11.3509 42.2983 11.331 42.4113 11.3344 42.5248C11.3377 42.6383 11.3643 42.7499 11.4124 42.8528C11.4605 42.9557 11.5291 43.0476 11.614 43.123L19.114 49.789C19.2724 49.9308 19.4791 50.0064 19.6916 50.0003C19.9041 49.9941 20.1061 49.9067 20.256 49.756L24.402 45.61L31.651 39.167H44.667C45.084 39.167 45.437 38.857 45.492 38.443L50.492 0.943C50.5077 0.825318 50.4981 0.705638 50.4638 0.591982C50.4294 0.478325 50.3712 0.373319 50.293 0.284ZM19.633 48.022L13.381 42.464L16.367 39.478L22.619 45.036L19.633 48.022ZM23.833 43.885L17.167 37.959V29.645L24.702 25.249C25.0592 25.0425 25.4831 24.9842 25.8828 25.0866C26.2825 25.1891 26.6262 25.4441 26.84 25.797C26.9491 25.9775 27.0205 26.1782 27.0497 26.3871C27.0789 26.5959 27.0654 26.8085 27.01 27.012C26.9 27.427 26.632 27.769 26.257 27.978L20.929 30.938C20.7989 31.0101 20.6905 31.1158 20.6151 31.244C20.5396 31.3722 20.4999 31.5183 20.5 31.667V38.333C20.5 38.793 20.873 39.167 21.333 39.167H29.142L23.833 43.885ZM43.938 37.5H22.166V32.157L27.064 29.435C27.4445 29.2254 27.7784 28.9408 28.0457 28.5984C28.313 28.256 28.508 27.8629 28.619 27.443C28.7329 27.0238 28.7606 26.5859 28.7004 26.1556C28.6403 25.7254 28.4935 25.3119 28.269 24.94C27.9974 24.4897 27.6204 24.1122 27.1704 23.84C26.7204 23.5679 26.2109 23.4093 25.686 23.378C25.0484 23.3374 24.4131 23.4874 23.861 23.809L20.516 25.761L23.728 1.667H48.713L43.938 37.5ZM8 4.167H19.667V5.834H8V4.167ZM6.333 14.167H18V15.834H6.333V14.167ZM3.833 24.167H15.5V25.834H3.833V24.167ZM4.667 4.167H6.334V5.834H4.667V4.167ZM3 14.167H4.667V15.834H3V14.167ZM0.5 24.167H2.167V25.834H0.5V24.167Z" fill="#1799E5"/>
</g>
<defs>
<clipPath id="clip0_1_5363">
<rect width="50" height="50" fill="white" transform="translate(0.5)"/>
</clipPath>
</defs>
</svg>
