<svg width="50" height="50" viewBox="0 0 50 50" fill="none" xmlns="http://www.w3.org/2000/svg">
<path d="M48 25C48 37.7025 37.7025 48 25 48C12.2975 48 2 37.7025 2 25C2 12.2975 12.2975 2 25 2C37.7025 2 48 12.2975 48 25Z" stroke="#1799E5" stroke-width="2"/>
<path fill-rule="evenodd" clip-rule="evenodd" d="M11.551 10.316C11.4007 10.3371 11.2627 10.4109 11.1618 10.5243C11.0609 10.6377 11.0035 10.7832 11 10.935V37.228C11 37.552 11.295 37.847 11.619 37.847H31.106C31.2684 37.8413 31.4227 37.7743 31.5377 37.6594C31.6528 37.5446 31.72 37.3904 31.726 37.228V33.825H33.581C33.7447 33.8213 33.9008 33.7553 34.0175 33.6405C34.1342 33.5256 34.2027 33.3706 34.209 33.207C34.209 32.88 33.908 32.583 33.581 32.588H31.725V31.66H33.581C33.7449 31.6563 33.9011 31.5902 34.0178 31.4751C34.1345 31.3601 34.2029 31.2048 34.209 31.041C34.209 30.715 33.908 30.418 33.581 30.423H31.725V29.185H33.581C33.7447 29.1813 33.9008 29.1153 34.0175 29.0005C34.1342 28.8856 34.2027 28.7306 34.209 28.567C34.209 28.24 33.908 27.943 33.581 27.948H31.725V26.711H33.581C33.7449 26.7073 33.9011 26.6412 34.0178 26.5261C34.1345 26.4111 34.2029 26.2558 34.209 26.092C34.209 25.765 33.908 25.469 33.581 25.473H31.725V24.236H33.581C33.7449 24.2323 33.9011 24.1662 34.0178 24.0511C34.1345 23.9361 34.2029 23.7808 34.209 23.617C34.209 23.291 33.908 22.994 33.581 22.999H31.725V17.122C31.7249 16.986 31.6807 16.8537 31.599 16.745C30.412 15.203 28.025 12.057 26.993 10.742C26.767 10.454 26.557 10.319 26.467 10.316H11.619C11.5964 10.3146 11.5736 10.3146 11.551 10.316ZM12.237 11.554H25.935C25.949 11.581 25.965 11.606 25.983 11.631C27.543 13.522 29.023 15.436 30.488 17.325C30.478 23.789 30.488 30.169 30.488 36.609H12.238V11.554H12.237Z" fill="#1799E5"/>
<path fill-rule="evenodd" clip-rule="evenodd" d="M32.2331 13.41C32.0713 13.4236 31.9207 13.4978 31.8113 13.6178C31.7019 13.7378 31.6418 13.8946 31.6431 14.057C31.6565 14.2191 31.7308 14.37 31.8511 14.4795C31.9713 14.589 32.1285 14.6488 32.2911 14.647H32.6001V20.215C32.6001 20.555 32.8641 20.832 33.1901 20.833H37.2401V39.703H18.9901V39.026C18.9862 38.8621 18.9198 38.7058 18.8046 38.5891C18.6894 38.4724 18.534 38.4041 18.3701 38.398C18.2066 38.4046 18.0517 38.4731 17.9369 38.5898C17.8221 38.7064 17.7561 38.8624 17.7521 39.026V40.321C17.7521 40.645 18.0471 40.94 18.3711 40.94H37.8591C38.0212 40.9338 38.175 40.8666 38.2896 40.7518C38.4042 40.637 38.4712 40.4831 38.4771 40.321V20.215C38.4762 20.0824 38.4323 19.9536 38.3521 19.848L33.7121 13.661C33.6545 13.5844 33.5802 13.5219 33.4947 13.4784C33.4093 13.4349 33.315 13.4115 33.2191 13.41H32.2331ZM33.7791 15.807L36.6211 19.597H33.7801V15.807H33.7791ZM16.7571 16.194C16.6734 16.1949 16.5908 16.2127 16.5141 16.2463C16.4375 16.28 16.3685 16.3289 16.3112 16.3899C16.254 16.451 16.2097 16.523 16.181 16.6016C16.1524 16.6803 16.1399 16.7639 16.1445 16.8475C16.149 16.9311 16.1704 17.0129 16.2074 17.088C16.2444 17.1631 16.2962 17.2299 16.3597 17.2844C16.4232 17.3389 16.4971 17.38 16.5769 17.4052C16.6567 17.4304 16.7408 17.4392 16.8241 17.431H23.9391C24.0224 17.4344 24.1056 17.4208 24.1835 17.3913C24.2615 17.3617 24.3327 17.3167 24.3928 17.2589C24.453 17.2011 24.5008 17.1318 24.5335 17.0551C24.5662 16.9784 24.583 16.8959 24.583 16.8125C24.583 16.7291 24.5662 16.6466 24.5335 16.5699C24.5008 16.4932 24.453 16.4239 24.3928 16.3661C24.3327 16.3083 24.2615 16.2633 24.1835 16.2337C24.1056 16.2042 24.0224 16.1907 23.9391 16.194H16.8241C16.8018 16.1928 16.7795 16.1928 16.7571 16.194ZM16.7571 19.287C16.6734 19.2879 16.5908 19.3057 16.5141 19.3393C16.4375 19.373 16.3685 19.4219 16.3112 19.4829C16.254 19.544 16.2097 19.616 16.181 19.6946C16.1524 19.7733 16.1399 19.8569 16.1445 19.9405C16.149 20.0241 16.1704 20.1059 16.2074 20.181C16.2444 20.2561 16.2962 20.3229 16.3597 20.3774C16.4232 20.4319 16.4971 20.473 16.5769 20.4982C16.6567 20.5234 16.7408 20.5322 16.8241 20.524H23.9391C24.0224 20.5274 24.1056 20.5138 24.1835 20.4843C24.2615 20.4547 24.3327 20.4097 24.3928 20.3519C24.453 20.2941 24.5008 20.2248 24.5335 20.1481C24.5662 20.0714 24.583 19.9889 24.583 19.9055C24.583 19.8221 24.5662 19.7396 24.5335 19.6629C24.5008 19.5862 24.453 19.5169 24.3928 19.4591C24.3327 19.4013 24.2615 19.3563 24.1835 19.3267C24.1056 19.2972 24.0224 19.2837 23.9391 19.287H16.8241C16.8018 19.2858 16.7795 19.2858 16.7571 19.287Z" fill="#1799E5"/>
<path d="M7 11L43 39" stroke="#1799E5" stroke-width="2"/>
</svg>
