<svg width="50" height="50" viewBox="0 0 50 50" fill="none" xmlns="http://www.w3.org/2000/svg">
<path d="M45.9976 7.30092C45.9972 7.10819 45.9358 6.92055 45.8221 6.76499C45.7085 6.60944 45.5485 6.49399 45.3651 6.43526L25.59 0.0449737C25.3976 -0.0178386 25.1899 -0.0146656 24.9996 0.053991C24.8089 -0.0143904 24.601 -0.017912 24.4082 0.0439718L4.63502 6.43726C4.45158 6.49563 4.29139 6.61082 4.17755 6.76622C4.06371 6.92162 4.0021 7.1092 4.0016 7.30192L4.0026 21.7697C3.99459 21.9821 3.43922 43.0186 24.5263 49.9539C24.6193 49.985 24.7164 50 24.8145 50H25.1857C25.2836 50.0003 25.3809 49.9848 25.4739 49.9539C46.5599 43.0186 46.0046 21.9811 45.9976 21.8048V7.30092ZM25.0376 48.1785H24.9626C5.34149 41.6379 5.8018 22.6444 5.83182 21.8038V7.96219L24.9736 1.7753C24.9826 1.7733 24.9906 1.76929 24.9996 1.76628L25.0256 1.7763L44.1683 7.96219V21.8389C44.1763 22.0352 44.6947 41.6229 25.0376 48.1795V48.1785Z" fill="#1799E5"/>
<path d="M40.2858 9.88789L25.4459 4.92135C25.3168 4.87927 25.1837 4.86825 25.0606 4.87927C24.9307 4.86776 24.7998 4.88206 24.6754 4.92135L9.83748 9.88689C9.65659 9.94732 9.4992 10.0631 9.38753 10.2179C9.27586 10.3726 9.21553 10.5586 9.21507 10.7496V22.0503C9.22107 22.2126 9.96257 38.3777 24.7304 44.0666C24.9431 44.1477 25.1781 44.1477 25.3908 44.0666C40.1587 38.3777 40.9012 22.2126 40.9082 22.0182V10.7496C40.9075 10.5588 40.8471 10.373 40.7354 10.2185C40.6238 10.0639 40.4665 9.94827 40.2858 9.88789ZM25.0596 42.2401C11.7528 36.8798 11.0493 22.1364 11.0443 22.0192V11.4038L25.0606 6.71279L39.078 11.4038V21.9862C39.0729 22.1354 38.3675 36.8788 25.0606 42.2411L25.0596 42.2401Z" fill="#1799E5"/>
<path d="M35.5356 18.279C35.349 18.1241 35.1089 18.0493 34.8675 18.0709C34.626 18.0924 34.4029 18.2087 34.2467 18.3942L23.6567 31.0095L16.8261 23.8758C16.6582 23.7009 16.4282 23.5994 16.186 23.5932C15.9438 23.587 15.7089 23.6766 15.5323 23.8427C15.4453 23.9248 15.3754 24.0233 15.3267 24.1326C15.278 24.2418 15.2514 24.3597 15.2484 24.4793C15.2454 24.5989 15.2662 24.7179 15.3094 24.8295C15.3526 24.941 15.4175 25.0429 15.5003 25.1292L23.0383 33.0023C23.1242 33.0917 23.2272 33.1628 23.3412 33.2113C23.4552 33.2599 23.5778 33.2849 23.7017 33.2849L23.7317 33.2839C23.8604 33.2799 23.9867 33.2489 24.1026 33.1928C24.2184 33.1367 24.3212 33.0567 24.4042 32.9582L35.6517 19.5615C35.7286 19.4699 35.7867 19.3641 35.8225 19.2499C35.8583 19.1358 35.8712 19.0157 35.8604 18.8965C35.8496 18.7774 35.8154 18.6616 35.7596 18.5557C35.7038 18.4499 35.6277 18.3562 35.5356 18.28V18.279Z" fill="#1799E5"/>
</svg>
