<svg width="51" height="50" viewBox="0 0 51 50" fill="none" xmlns="http://www.w3.org/2000/svg">
<path fill-rule="evenodd" clip-rule="evenodd" d="M10.2477 5.25L8.2517 6.332L8.63384 4.04L7.01898 2.418L9.24971 2.084L10.2477 0L11.2448 2.084L13.4755 2.418L11.8616 4.041L12.2428 6.331L10.2477 5.25ZM17.5665 5.25L15.5734 6.332L15.9535 4.041L14.3397 2.418L16.5704 2.084L17.5674 0L18.5645 2.084L20.7952 2.418L19.1813 4.041L19.5625 6.331L17.5665 5.25ZM25.8017 5.25L23.8067 6.332L24.1879 4.041L22.574 2.418L24.8047 2.084L25.8008 0L26.7988 2.084L29.0295 2.418L27.4156 4.041L27.7968 6.331L25.8017 5.25ZM33.1215 5.25L31.1264 6.332L31.5076 4.041L29.8937 2.418L32.1244 2.084L33.1215 0L34.1204 2.084L36.3512 2.418L34.7363 4.041L35.1175 6.331L33.1215 5.25ZM40.4421 5.25L38.4461 6.332L38.8273 4.041L37.2134 2.418L39.4441 2.084L40.4421 0L41.4392 2.084L43.6699 2.418L42.056 4.041L42.4372 6.331L40.4421 5.25Z" fill="#1799E5"/>
<path d="M17.0214 28.333H34.8013L34.8013 26.667H17.0214L17.0204 26.666V28.333H17.0214Z" fill="#1799E5"/>
<path d="M15.4036 28.333H17.0204V26.666L15.4046 26.667L15.4036 26.666V28.333Z" fill="#1799E5"/>
<path fill-rule="evenodd" clip-rule="evenodd" d="M13.3329 28.333L9.04022 44.156C8.91392 44.6637 8.9021 45.1944 9.00567 45.7075C9.10923 46.2206 9.32543 46.7024 9.63767 47.116C10.2196 47.89 11.0828 48.333 12.0013 48.333H39.8224C40.7409 48.333 41.6031 47.89 42.186 47.117C42.4995 46.7003 42.7159 46.2148 42.8185 45.6981C42.9211 45.1814 42.9071 44.6472 42.7776 44.137L38.4907 28.333H36.4191H36.4181H34.8013V21.667L34.8013 17.5H29.9393C29.725 17.5 29.5195 17.4122 29.368 17.256C29.2165 17.0998 29.1314 16.8879 29.1314 16.667V11.667H17.8293C17.6151 11.6673 17.4098 11.7551 17.2583 11.9113C17.1068 12.0674 17.0216 12.2792 17.0214 12.5V26.667L17.0204 26.666L15.4046 26.667L15.4036 26.666V23.333H12.9799C12.7655 23.3333 12.56 23.4212 12.4085 23.5776C12.2571 23.734 12.172 23.946 12.172 24.167V25.833C12.172 26.2792 12.5133 26.6445 12.9401 26.666H15.4036V28.333H13.3329ZM44.3391 43.706L40.0754 27.9852C40.7883 27.5495 41.2675 26.7481 41.2675 25.833V24.167C41.2675 22.788 40.1793 21.667 38.8428 21.667H36.4181V16.321L36.1983 16.0949C36.1928 16.0889 36.1871 16.0829 36.1814 16.077L30.5096 10.243C30.5009 10.2341 30.4921 10.2255 30.483 10.2171L30.2719 10H17.8283C16.4909 10 15.4036 11.121 15.4036 12.5V21.667H12.9789C11.6414 21.667 10.5542 22.788 10.5542 24.167H8.14502C7.95903 24.1669 7.77869 24.2329 7.63436 24.3538C7.49003 24.4747 7.39053 24.6433 7.35262 24.831L6.51658 28.998C6.4924 29.1192 6.49469 29.2445 6.5233 29.3647C6.55191 29.485 6.60611 29.5971 6.68198 29.693C6.75784 29.789 6.85347 29.8663 6.96192 29.9194C7.07037 29.9725 7.18892 30 7.30898 30C7.49479 29.9999 7.67491 29.9338 7.81904 29.8129C7.96317 29.692 8.06252 29.5236 8.1004 29.336L8.8026 25.833H10.5542C10.555 26.4958 10.8107 27.1312 11.2652 27.5999C11.411 27.7502 11.5735 27.8794 11.7481 27.9857L7.47871 43.726C7.28764 44.4823 7.26787 45.2737 7.42091 46.0391C7.57396 46.8045 7.89571 47.5233 8.3613 48.14C9.25359 49.322 10.5794 50 12.0013 50H39.8224C41.2433 50 42.5701 49.322 43.4624 48.14C44.4051 46.889 44.7271 45.28 44.3391 43.706ZM10.5542 25.833H11.3631C11.5774 25.833 11.7829 25.7452 11.9344 25.589C12.0859 25.4328 12.171 25.2209 12.171 25C12.171 24.7791 12.0859 24.5672 11.9344 24.411C11.7829 24.2548 11.5774 24.167 11.3631 24.167H10.5542V25.833ZM39.6517 25.833C39.6517 26.2792 39.3104 26.6445 38.8836 26.666L36.4191 26.667V23.333H38.8438C39.0581 23.3333 39.2636 23.4212 39.4151 23.5776C39.5666 23.734 39.6517 23.946 39.6517 24.167V25.833ZM33.655 15.834L30.7472 12.8431V15.834H33.655ZM16.4498 32.2559C16.6014 32.4122 16.807 32.5 17.0214 32.5H17.8293C18.0437 32.5 18.2493 32.4122 18.4009 32.2559C18.5525 32.0996 18.6377 31.8876 18.6377 31.6665C18.6377 31.4454 18.5525 31.2334 18.4009 31.0771C18.2493 30.9208 18.0437 30.833 17.8293 30.833H17.0214C16.807 30.833 16.6014 30.9208 16.4498 31.0771C16.2982 31.2334 16.213 31.4454 16.213 31.6665C16.213 31.8876 16.2982 32.0996 16.4498 32.2559ZM22.6787 32.5H23.4866C23.701 32.5 23.9067 32.4122 24.0583 32.2559C24.2099 32.0996 24.295 31.8876 24.295 31.6665C24.295 31.4454 24.2099 31.2334 24.0583 31.0771C23.9067 30.9208 23.701 30.833 23.4866 30.833H22.6787C22.4643 30.833 22.2587 30.9208 22.1071 31.0771C21.9555 31.2334 21.8703 31.4454 21.8703 31.6665C21.8703 31.8876 21.9555 32.0996 22.1071 32.2559C22.2587 32.4122 22.4643 32.5 22.6787 32.5ZM28.3361 32.5H29.1449C29.3593 32.5 29.565 32.4122 29.7166 32.2559C29.8682 32.0996 29.9533 31.8876 29.9533 31.6665C29.9533 31.4454 29.8682 31.2334 29.7166 31.0771C29.565 30.9208 29.3593 30.833 29.1449 30.833H28.3361C28.1217 30.833 27.916 30.9208 27.7644 31.0771C27.6128 31.2334 27.5277 31.4454 27.5277 31.6665C27.5277 31.8876 27.6128 32.0996 27.7644 32.2559C27.916 32.4122 28.1217 32.5 28.3361 32.5ZM33.4227 32.2559C33.5743 32.4122 33.78 32.5 33.9944 32.5H34.8023C35.0167 32.5 35.2223 32.4122 35.3739 32.2559C35.5255 32.0996 35.6107 31.8876 35.6107 31.6665C35.6107 31.4454 35.5255 31.2334 35.3739 31.0771C35.2223 30.9208 35.0167 30.833 34.8023 30.833H33.9944C33.78 30.833 33.5743 30.9208 33.4227 31.0771C33.2711 31.2334 33.186 31.4454 33.186 31.6665C33.186 31.8876 33.2711 32.0996 33.4227 32.2559ZM16.4501 40.589C16.6016 40.7452 16.8071 40.833 17.0214 40.833H17.8293C18.0436 40.833 18.2491 40.7452 18.4006 40.589C18.5521 40.4328 18.6372 40.2209 18.6372 40C18.6372 39.7791 18.5521 39.5672 18.4006 39.411C18.2491 39.2548 18.0436 39.167 17.8293 39.167H17.0214C16.8071 39.167 16.6016 39.2548 16.4501 39.411C16.2986 39.5672 16.2135 39.7791 16.2135 40C16.2135 40.2209 16.2986 40.4328 16.4501 40.589ZM17.0224 45.833H34.8013C35.0156 45.833 35.2211 45.7452 35.3726 45.589C35.5241 45.4328 35.6092 45.2209 35.6092 45C35.6092 44.7791 35.5241 44.5672 35.3726 44.411C35.2211 44.2548 35.0156 44.167 34.8013 44.167H17.0224C16.8081 44.167 16.6026 44.2548 16.4511 44.411C16.2996 44.5672 16.2144 44.7791 16.2144 45C16.2144 45.2209 16.2996 45.4328 16.4511 45.589C16.6026 45.7452 16.8081 45.833 17.0224 45.833ZM22.6787 40.833H23.4866C23.7009 40.833 23.9064 40.7452 24.0579 40.589C24.2094 40.4328 24.2945 40.2209 24.2945 40C24.2945 39.7791 24.2094 39.5672 24.0579 39.411C23.9064 39.2548 23.7009 39.167 23.4866 39.167H22.6787C22.4644 39.167 22.259 39.2548 22.1074 39.411C21.9559 39.5672 21.8708 39.7791 21.8708 40C21.8708 40.2209 21.9559 40.4328 22.1074 40.589C22.259 40.7452 22.4644 40.833 22.6787 40.833ZM28.3361 40.833H29.1449C29.3592 40.833 29.5647 40.7452 29.7162 40.589C29.8677 40.4328 29.9528 40.2209 29.9528 40C29.9528 39.7791 29.8677 39.5672 29.7162 39.411C29.5647 39.2548 29.3592 39.167 29.1449 39.167H28.3361C28.1218 39.167 27.9163 39.2548 27.7648 39.411C27.6133 39.5672 27.5281 39.7791 27.5281 40C27.5281 40.2209 27.6133 40.4328 27.7648 40.589C27.9163 40.7452 28.1218 40.833 28.3361 40.833ZM33.4231 40.589C33.5746 40.7452 33.7801 40.833 33.9944 40.833H34.8023C35.0165 40.833 35.222 40.7452 35.3735 40.589C35.5251 40.4328 35.6102 40.2209 35.6102 40C35.6102 39.7791 35.5251 39.5672 35.3735 39.411C35.222 39.2548 35.0165 39.167 34.8023 39.167H33.9944C33.7801 39.167 33.5746 39.2548 33.4231 39.411C33.2716 39.5672 33.1864 39.7791 33.1864 40C33.1864 40.2209 33.2716 40.4328 33.4231 40.589ZM14.0251 36.4229C14.1767 36.5792 14.3823 36.667 14.5967 36.667H15.4046C15.619 36.667 15.8246 36.5792 15.9762 36.4229C16.1278 36.2666 16.213 36.0546 16.213 35.8335C16.213 35.6124 16.1278 35.4004 15.9762 35.2441C15.8246 35.0878 15.619 35 15.4046 35H14.5967C14.3823 35 14.1767 35.0878 14.0251 35.2441C13.8735 35.4004 13.7883 35.6124 13.7883 35.8335C13.7883 36.0546 13.8735 36.2666 14.0251 36.4229ZM20.254 36.667H21.0619C21.2763 36.667 21.4819 36.5792 21.6336 36.4229C21.7852 36.2666 21.8703 36.0546 21.8703 35.8335C21.8703 35.6124 21.7852 35.4004 21.6336 35.2441C21.4819 35.0878 21.2763 35 21.0619 35H20.254C20.0396 35 19.834 35.0878 19.6824 35.2441C19.5308 35.4004 19.4456 35.6124 19.4456 35.8335C19.4456 36.0546 19.5308 36.2666 19.6824 36.4229C19.834 36.5792 20.0396 36.667 20.254 36.667ZM25.9113 36.667H26.7202C26.9346 36.667 27.1402 36.5792 27.2919 36.4229C27.4435 36.2666 27.5286 36.0546 27.5286 35.8335C27.5286 35.6124 27.4435 35.4004 27.2919 35.2441C27.1402 35.0878 26.9346 35 26.7202 35H25.9113C25.6969 35 25.4913 35.0878 25.3397 35.2441C25.1881 35.4004 25.1029 35.6124 25.1029 35.8335C25.1029 36.0546 25.1881 36.2666 25.3397 36.4229C25.4913 36.5792 25.6969 36.667 25.9113 36.667ZM30.998 36.4229C31.1496 36.5792 31.3552 36.667 31.5696 36.667H32.3776C32.592 36.667 32.7976 36.5792 32.9492 36.4229C33.1008 36.2666 33.186 36.0546 33.186 35.8335C33.186 35.6124 33.1008 35.4004 32.9492 35.2441C32.7976 35.0878 32.592 35 32.3776 35H31.5696C31.3552 35 31.1496 35.0878 30.998 35.2441C30.8464 35.4004 30.7612 35.6124 30.7612 35.8335C30.7612 36.0546 30.8464 36.2666 30.998 36.4229ZM35.8474 36.4229C35.999 36.5792 36.2047 36.667 36.4191 36.667H37.227C37.4414 36.667 37.647 36.5792 37.7986 36.4229C37.9502 36.2666 38.0354 36.0546 38.0354 35.8335C38.0354 35.6124 37.9502 35.4004 37.7986 35.2441C37.647 35.0878 37.4414 35 37.227 35H36.4191C36.2047 35 35.999 35.0878 35.8474 35.2441C35.6958 35.4004 35.6107 35.6124 35.6107 35.8335C35.6107 36.0546 35.6958 36.2666 35.8474 36.4229ZM20.2404 17.5H25.8978C26.1122 17.5 26.3178 17.4122 26.4694 17.2559C26.621 17.0996 26.7062 16.8876 26.7062 16.6665C26.7062 16.4454 26.621 16.2334 26.4694 16.0771C26.3178 15.9208 26.1122 15.833 25.8978 15.833H20.2404C20.026 15.833 19.8204 15.9208 19.6688 16.0771C19.5172 16.2334 19.432 16.4454 19.432 16.6665C19.432 16.8876 19.5172 17.0996 19.6688 17.2559C19.8204 17.4122 20.026 17.5 20.2404 17.5ZM20.2404 22.5H31.5551C31.7695 22.5 31.9751 22.4122 32.1267 22.2559C32.2783 22.0996 32.3635 21.8876 32.3635 21.6665C32.3635 21.4454 32.2783 21.2334 32.1267 21.0771C31.9751 20.9208 31.7695 20.833 31.5551 20.833H20.2404C20.026 20.833 19.8204 20.9208 19.6688 21.0771C19.5172 21.2334 19.432 21.4454 19.432 21.6665C19.432 21.8876 19.5172 22.0996 19.6688 22.2559C19.8204 22.4122 20.026 22.5 20.2404 22.5Z" fill="#1799E5"/>
<path d="M10.5542 24.167V25.833H11.3631C11.5774 25.833 11.7829 25.7452 11.9344 25.589C12.0859 25.4328 12.171 25.2209 12.171 25C12.171 24.7791 12.0859 24.5672 11.9344 24.411C11.7829 24.2548 11.5774 24.167 11.3631 24.167H10.5542Z" fill="#1799E5"/>
</svg>
