<svg width="30" height="30" viewBox="0 0 30 30" fill="none" xmlns="http://www.w3.org/2000/svg">
<g clip-path="url(#clip0_246_1968)">
<path fill-rule="evenodd" clip-rule="evenodd" d="M0 0H30V30H0V0ZM5.8233 20.905V16.195H10.81L11.345 16.8917L11.8983 16.195H30V20.58C30 20.58 29.5266 20.9 28.9783 20.905H18.955L18.3516 20.1633V20.905H16.3766V19.6383C16.3766 19.6383 16.1066 19.815 15.5233 19.815H14.85V20.905H11.8566L11.3216 20.1933L10.7783 20.905H5.8233ZM0 12.645L1.125 10.0233H3.07L3.70833 11.4916V10.0233H6.12667L6.50667 11.085L6.875 10.0233H17.7283V10.5566C17.7283 10.5566 18.2983 10.0233 19.2367 10.0233L22.7583 10.035L23.385 11.485V10.0233H25.4083L25.965 10.8566V10.0233H28.0067V14.7333H25.965L25.4317 13.8983V14.7333H22.4583L22.16 13.9916H21.3617L21.0683 14.7333H19.0517C18.245 14.7333 17.7283 14.21 17.7283 14.21V14.7333H14.6867L14.0833 13.9916V14.7333H2.78167L2.48333 13.9916H1.68667L1.39 14.7333H0V12.645Z" fill="#BFDFFF"/>
<path fill-rule="evenodd" clip-rule="evenodd" d="M1.52326 10.6035L0.0065918 14.1302H0.993258L1.27326 13.4235H2.89992L3.17826 14.1302H4.18826L2.67326 10.6035H1.52326ZM2.08326 11.4252L2.57993 12.6585H1.58659L2.08326 11.4252ZM4.29163 14.1302V10.6035L5.69496 10.6085L6.51163 12.8819L7.3083 10.6035H8.69996V14.1302H7.8183V11.5319L6.88496 14.1302H6.11163L5.17329 11.5319V14.1302H4.29163ZM9.30328 14.1302V10.6035H12.1816V11.3919H10.1949V11.9952H12.1349V12.7385H10.1949V13.3652H12.1816V14.1302H9.30328ZM12.6916 10.6035V14.1302H13.5732V12.8769H13.9449L15.0016 14.1302H16.0782L14.9182 12.8302C15.3949 12.7902 15.8849 12.3819 15.8849 11.7469C15.8849 11.0052 15.3016 10.6035 14.6516 10.6035H12.6916ZM13.5732 11.3935H14.5815C14.8232 11.3935 14.9999 11.5819 14.9999 11.7652C14.9999 12.0002 14.7715 12.1369 14.5949 12.1369H13.5732V11.3935ZM17.1466 14.1302H16.2466V10.6035H17.1466V14.1302ZM19.2799 14.1302H19.0849C18.1449 14.1302 17.5732 13.3902 17.5732 12.3819C17.5732 11.3485 18.1382 10.6035 19.3249 10.6035H20.2999V11.4385H19.2899C18.8082 11.4385 18.4665 11.8152 18.4665 12.3902C18.4665 13.0735 18.8565 13.3602 19.4182 13.3602H19.6499L19.2799 14.1302ZM21.1999 10.6035L19.6832 14.1302H20.6699L20.9499 13.4235H22.5766L22.8549 14.1302H23.8649L22.3499 10.6035H21.1999ZM21.7599 11.4252L22.2566 12.6585H21.2633L21.7599 11.4252ZM23.9682 14.1302V10.6035H25.0882L26.5199 12.8185V10.6035H27.4016V14.1302H26.3166L24.8499 11.8569V14.1302H23.9682ZM6.42664 20.3018V16.7752H9.30331V17.5635H7.3183V18.1668H9.25831V18.9102H7.3183V19.5368H9.30331V20.3018H6.42664ZM20.5249 20.3018V16.7752H23.4015V17.5635H21.4149V18.1668H23.3449V18.9102H21.4149V19.5368H23.4015V20.3018H20.5249ZM9.41499 20.3018L10.8166 18.5602L9.38165 16.7752H10.4933L11.3466 17.8785L12.2049 16.7752H13.2716L11.8566 18.5385L13.2599 20.3018H12.1483L11.3199 19.2152L10.5099 20.3018H9.41499ZM13.3649 16.7752V20.3018H14.2699V19.1885H15.1982C15.9832 19.1885 16.5782 18.7718 16.5782 17.9618C16.5782 17.2902 16.1116 16.7752 15.3116 16.7752H13.3649ZM14.2699 17.5735H15.2466C15.4999 17.5735 15.6816 17.7285 15.6816 17.9802C15.6816 18.2152 15.5016 18.3868 15.2432 18.3868H14.2682V17.5735H14.2699ZM16.9599 16.7752V20.3018H17.8416V19.0485H18.2133L19.2699 20.3018H20.3466L19.1866 19.0018C19.6632 18.9618 20.1532 18.5535 20.1532 17.9185C20.1532 17.1768 19.5699 16.7752 18.9199 16.7752H16.9599ZM17.8416 17.5635H18.8499C19.0916 17.5635 19.2683 17.7518 19.2683 17.9352C19.2683 18.1702 19.0399 18.3068 18.8633 18.3068H17.8416V17.5635ZM23.8099 20.3018V19.5368H25.5749C25.8366 19.5368 25.9499 19.3951 25.9499 19.2418C25.9499 19.0935 25.8366 18.9435 25.5749 18.9435H24.7782C24.0849 18.9435 23.6999 18.5218 23.6999 17.8868C23.6999 17.3218 24.0532 16.7768 25.0832 16.7768H26.7999L26.4282 17.5701H24.9432C24.6599 17.5701 24.5716 17.7185 24.5716 17.8618C24.5716 18.0085 24.6799 18.1685 24.8966 18.1685H25.7316C26.5049 18.1685 26.8399 18.6068 26.8399 19.1801C26.8399 19.7968 26.4666 20.3018 25.6899 20.3018H23.8099ZM27.0449 20.3018V19.5368H28.7349C28.9966 19.5368 29.1099 19.3951 29.1099 19.2418C29.1099 19.0935 28.9966 18.9435 28.7349 18.9435H28.0116C27.3182 18.9435 26.9332 18.5218 26.9332 17.8868C26.9332 17.3218 27.2866 16.7768 28.3166 16.7768H29.9999L29.6282 17.5701H28.1782C27.8949 17.5701 27.8066 17.7185 27.8066 17.8618C27.8066 18.0085 27.9149 18.1685 28.1316 18.1685H28.8916C29.6649 18.1685 29.9999 18.6068 29.9999 19.1801C29.9999 19.7968 29.6266 20.3018 28.8499 20.3018H27.0449Z" fill="#BFDFFF"/>
</g>
<defs>
<clipPath id="clip0_246_1968">
<rect width="30" height="30" fill="white"/>
</clipPath>
</defs>
</svg>
