<svg width="40" height="30" viewBox="0 0 40 30" fill="none" xmlns="http://www.w3.org/2000/svg">
<path fill-rule="evenodd" clip-rule="evenodd" d="M6.82846 9.95246V15.5763C6.82846 16.0332 6.75462 16.4763 6.52385 16.8779C6.17154 17.5 5.54091 17.9141 4.83 17.9902C3.81923 18.1332 2.82693 17.9809 1.86462 17.6786C1.26923 17.4894 0.694619 17.2309 0.108465 17.0094C-0.00230431 16.9655 3.69377e-06 16.8894 3.69377e-06 16.7994V4.82247C0.0177417 2.58621 1.56339 0.652489 3.74077 0.142465C4.14231 0.0547732 4.56 0.0109272 4.96847 0.00861925C7.2577 -0.00061075 9.54692 0.00861925 11.8338 0.00861925H12.0323V0.207081C12.0323 8.30708 12.0415 16.4071 12.0254 24.5071C12.0103 26.8022 10.3785 28.7681 8.12539 29.2055C7.77693 29.2748 7.41462 29.3025 7.05923 29.3048C4.77462 29.314 2.49231 29.3117 0.210004 29.314H0.0161567V19.0425C0.46385 19.1325 0.906927 19.2432 1.35693 19.3055C2.18539 19.4163 3.01616 19.5317 3.84923 19.5825C4.60616 19.6286 5.37231 19.6263 6.12923 19.5871C7.2277 19.5317 8.30539 19.3355 9.28616 18.7909C10.3615 18.1932 10.9546 17.2725 11.0238 16.0448C11.07 15.2763 11.0562 14.5032 11.0585 13.7325C11.0631 12.5417 11.0585 11.3509 11.0631 10.1602C11.0631 9.994 11.0215 9.94323 10.8508 9.94554C9.57693 9.95247 8.30308 9.95016 7.02923 9.95246H6.82846ZM13.5185 29.3071V18.0733C13.5531 18.0871 13.5785 18.094 13.5969 18.1079C14.4854 18.821 15.5239 19.1833 16.6223 19.391C18.0531 19.6633 19.4931 19.6794 20.9377 19.564C21.9797 19.4697 23.0138 19.3024 24.0323 19.0633C24.1546 19.0379 24.2054 18.9963 24.2054 18.8625C24.1962 18.2948 24.2008 17.7248 24.2008 17.1571V16.9633C24.1315 16.991 24.0854 17.0094 24.0392 17.0325C23.0677 17.5056 22.0546 17.8448 20.9769 17.9787C20.0308 18.0963 19.0939 18.0987 18.1939 17.7317C17.0885 17.2794 16.4839 16.4371 16.32 15.2694C16.2214 14.64 16.2736 13.9962 16.4723 13.391C16.8392 12.3133 17.6192 11.6994 18.6923 11.4179C19.4539 11.2217 20.22 11.2402 20.9908 11.3371C22.0909 11.4836 23.1574 11.8193 24.1431 12.3294C24.1523 12.334 24.1639 12.3294 24.1892 12.3294C24.1939 12.2856 24.2008 12.2394 24.2008 12.1933C24.2008 11.6094 24.1985 11.0233 24.2031 10.4394C24.2031 10.3356 24.1777 10.2825 24.0692 10.2548C22.2785 9.83942 20.4692 9.61558 18.6277 9.70096C17.4646 9.75173 16.3131 9.90173 15.2123 10.3102C14.64 10.5225 14.1046 10.8017 13.6269 11.1871L13.5115 11.261V4.87788C13.509 3.5797 14.026 2.33447 14.9472 1.41977C15.8684 0.505067 17.1173 -0.00305975 18.4154 0.00865425C20.7369 -0.00519175 23.0585 0.00173025 25.38 0.00173025C25.4285 0.00173025 25.4769 0.00634525 25.5415 0.0109602C25.5462 0.0801913 25.5508 0.144807 25.5508 0.209422C25.5508 8.32788 25.5646 16.444 25.5392 24.5625C25.5346 26.4017 24.6185 27.7794 23.0377 28.7025C22.3162 29.1157 21.4967 29.3269 20.6654 29.314H13.6846L13.5185 29.3071V29.3071ZM27.0462 29.3117V19.361H27.2608C29.7577 19.361 32.2569 19.3702 34.7539 19.361C35.5131 19.361 36.2285 19.1694 36.8423 18.6964C37.451 18.2537 37.7878 17.528 37.7328 16.7774C37.6779 16.0268 37.239 15.3579 36.5723 15.0087C36.0659 14.7369 35.5073 14.5764 34.9339 14.5379C35.2085 14.4548 35.4692 14.3971 35.7115 14.2956C36.4431 13.9933 36.9438 13.4787 37.11 12.6802C37.3099 11.7786 36.8905 10.8534 36.0808 10.4094C35.4623 10.0587 34.7862 9.95251 34.0915 9.95251C31.8185 9.9479 29.5454 9.95251 27.2746 9.95251H27.0369V4.85252C27.0458 2.16894 29.2272 -2.07503e-05 31.9108 0.00636225C34.2369 0.00636225 36.5631 0.0132852 38.8892 0.0109772C39.0738 0.0109772 39.0623 0.103285 39.0623 0.2279V24.2971C39.0531 26.0925 38.3169 27.5117 36.8285 28.5202C36.18 28.9587 35.4531 29.2148 34.6685 29.2725C34.2344 29.299 33.7995 29.3106 33.3646 29.3071L27.2262 29.3117H27.0462Z" fill="#BFDFFF"/>
</svg>
