<svg width="40" height="30" viewBox="0 0 40 30" fill="none" xmlns="http://www.w3.org/2000/svg">
<path d="M7.28825 29.921V27.929C7.31425 27.589 7.18725 27.255 6.94025 27.013C6.69225 26.771 6.34825 26.644 5.99725 26.666C5.53625 26.637 5.09425 26.853 4.84525 27.23C4.61825 26.864 4.20125 26.647 3.76025 26.666C3.37625 26.648 3.01125 26.827 2.80025 27.137V26.744H2.06225V29.914H2.80025V28.165C2.75725 27.943 2.82425 27.714 2.98325 27.548C3.14225 27.382 3.37225 27.298 3.60525 27.323C4.07725 27.323 4.34325 27.623 4.34325 28.158V29.921H5.08125V28.165C5.03825 27.943 5.10525 27.714 5.26425 27.548C5.42325 27.382 5.65325 27.298 5.88625 27.323C6.37325 27.323 6.62425 27.623 6.62425 28.158V29.921H7.28825ZM17.9472 26.751H16.7812V25.787H16.0432V26.751H15.3792V27.379H16.0432V28.807C16.0432 29.521 16.3382 29.978 17.1802 29.978C17.4952 29.98 17.8052 29.896 18.0732 29.735L17.8662 29.142C17.6762 29.251 17.4602 29.313 17.2392 29.32C16.8852 29.32 16.7672 29.106 16.7672 28.792V27.364H17.9332L17.9482 26.75L17.9472 26.751ZM24.0302 26.672C23.6762 26.662 23.3452 26.84 23.1662 27.136V26.75H22.4282V29.92H23.1662V28.142C23.1662 27.621 23.4022 27.328 23.8672 27.328C24.0182 27.326 24.1692 27.353 24.3102 27.407L24.5312 26.757C24.3672 26.701 24.1952 26.672 24.0222 26.671H24.0292L24.0302 26.672ZM14.8322 27C14.4282 26.769 13.9653 26.655 13.4963 26.672C12.6693 26.672 12.1302 27.058 12.1302 27.686C12.1302 28.207 12.5292 28.521 13.2592 28.621L13.5992 28.664C13.9902 28.714 14.1753 28.814 14.1753 28.992C14.1753 29.17 13.9173 29.378 13.4373 29.378C13.0453 29.391 12.6602 29.275 12.3442 29.05L12.0042 29.585C12.4192 29.866 12.9153 30.011 13.4213 29.999C14.3663 29.999 14.8973 29.571 14.8973 28.964C14.8973 28.357 14.4613 28.114 13.7533 28.014L13.4132 27.971C13.1032 27.928 12.8593 27.871 12.8593 27.657C12.8593 27.443 13.0952 27.286 13.4862 27.286C13.8442 27.292 14.1942 27.385 14.5052 27.557L14.8302 27H14.8322ZM33.9442 26.672C33.5902 26.662 33.2592 26.84 33.0802 27.136V26.75H32.3423V29.92H33.0802V28.142C33.0802 27.621 33.3162 27.328 33.7812 27.328C33.9322 27.326 34.0833 27.353 34.2243 27.407L34.4452 26.757C34.2812 26.701 34.1092 26.672 33.9362 26.671H33.9432L33.9442 26.672ZM25.2472 29.536C25.5822 29.85 26.0382 30.013 26.5032 29.984C26.9322 30.005 27.3532 29.87 27.6842 29.606L27.3442 29.049C27.0972 29.229 26.7972 29.329 26.4882 29.335C25.9092 29.335 25.4402 28.881 25.4402 28.321C25.4402 27.761 25.9092 27.307 26.4882 27.307C26.7972 27.313 27.0972 27.413 27.3442 27.593L27.6842 27.036C27.3532 26.771 26.9322 26.636 26.5032 26.658C26.0322 26.629 25.5712 26.796 25.2362 27.116C24.9002 27.436 24.7222 27.88 24.7462 28.336C24.7312 28.787 24.9122 29.223 25.2472 29.537V29.536ZM31.4272 28.335V26.75H30.6892V27.128C30.4422 26.821 30.0572 26.649 29.6562 26.664C28.7063 26.664 27.9362 27.409 27.9362 28.327C27.9362 29.246 28.7063 29.99 29.6562 29.99C30.0583 30.005 30.4422 29.833 30.6892 29.526V29.912H31.4272V28.334V28.335ZM29.7932 27.436C30.3302 27.455 30.7532 27.885 30.7462 28.405C30.7392 28.925 30.3032 29.344 29.7662 29.348C29.4912 29.353 29.2272 29.246 29.0372 29.053C28.8482 28.86 28.7502 28.6 28.7692 28.334C28.8012 27.815 29.2562 27.416 29.7932 27.435V27.436ZM20.1692 26.664C19.2192 26.678 18.4612 27.434 18.4752 28.352C18.4892 29.271 19.2712 30.004 20.2212 29.99C20.7102 30.008 21.1882 29.85 21.5642 29.547L21.2172 29.033C20.9462 29.242 20.6112 29.357 20.2652 29.361C19.7732 29.403 19.3372 29.057 19.2832 28.583H21.7192V28.319C21.7602 27.894 21.6152 27.472 21.3192 27.155C21.0232 26.839 20.6032 26.657 20.1612 26.655L20.1682 26.662L20.1692 26.664ZM20.7482 27.498C20.9032 27.643 20.9922 27.841 20.9962 28.049H19.2982C19.3222 27.605 19.7102 27.262 20.1692 27.278C20.3842 27.274 20.5922 27.353 20.7482 27.498ZM38.0342 28.335V25.479H37.2962V27.128C37.0492 26.821 36.6642 26.649 36.2632 26.664C35.3132 26.664 34.5432 27.409 34.5432 28.327C34.5432 29.246 35.3132 29.99 36.2632 29.99C36.6652 30.005 37.0492 29.833 37.2962 29.526V29.912H38.0342V28.334V28.335ZM36.4062 27.422C36.9492 27.44 37.3772 27.875 37.3682 28.401C37.3592 28.927 36.9162 29.348 36.3732 29.349C36.0982 29.354 35.8342 29.247 35.6442 29.054C35.4552 28.861 35.3572 28.601 35.3762 28.335C35.4042 27.81 35.8623 27.404 36.4053 27.422H36.4062ZM11.2902 28.335V26.75H10.5522V27.128C10.3052 26.821 9.92025 26.649 9.51925 26.664C8.56925 26.664 7.79925 27.409 7.79925 28.327C7.79925 29.246 8.56925 29.99 9.51925 29.99C9.92125 30.005 10.3052 29.833 10.5522 29.526V29.912H11.2902V28.334V28.335ZM8.63325 28.335C8.66525 27.816 9.12025 27.417 9.65725 27.436C10.1943 27.455 10.6173 27.885 10.6103 28.405C10.6033 28.925 10.1672 29.344 9.63025 29.348C9.35925 29.347 9.10125 29.237 8.91625 29.045C8.73125 28.853 8.63725 28.596 8.65625 28.334H8.63425L8.63325 28.335ZM19.1892 21.91C14.0342 25.226 7.13725 24.338 3.05925 19.834C-1.01975 15.33 -1.01975 8.60101 3.05925 4.09601C7.13825 -0.40799 14.0352 -1.29599 19.1892 2.02001L18.8942 2.25601C15.9862 4.69701 14.3153 8.23801 14.3153 11.962C14.3153 15.686 15.9852 19.227 18.8942 21.668L19.1892 21.911V21.91ZM27.6342 9.65753e-06C25.2012 -0.00299034 22.8222 0.69301 20.7982 1.99901L21.0932 2.23501C24.0012 4.67601 25.6722 8.21701 25.6722 11.941C25.6722 15.665 24.0022 19.206 21.0932 21.647L20.7982 21.883C25.2002 24.722 30.9833 24.533 35.1772 21.413C39.3712 18.293 41.0452 12.936 39.3382 8.09301C37.6312 3.24901 32.9242 -0.00499034 27.6332 0.00100966L27.6342 9.65753e-06ZM19.5362 2.92701C16.8362 5.19301 15.2863 8.48001 15.2863 11.937C15.2863 15.394 16.8372 18.681 19.5362 20.947L20.0012 21.318L20.4662 20.947C23.1662 18.681 24.7162 15.394 24.7162 11.937C24.7162 8.48001 23.1652 5.19301 20.4662 2.92701L20.0012 2.55601C19.8392 2.67701 19.6842 2.79901 19.5362 2.92701Z" fill="#BFDFFF"/>
</svg>
