<svg width="168" height="74" viewBox="0 0 168 74" fill="none" xmlns="http://www.w3.org/2000/svg">
<g clip-path="url(#clip0_135_1811)">
<path d="M28.4058 4.4227L23.8463 25.8586H29.3715L33.7926 4.4227H28.4058ZM20.3925 4.4227L14.7289 18.948L12.3808 6.53771C12.104 5.1267 10.9998 4.4227 9.89419 4.4227H0.638393L0.5 4.9868C2.4345 5.4095 4.50588 6.11501 5.88831 6.82051C6.71716 7.24321 6.85556 7.66742 7.13234 8.65422L11.415 25.7187H17.217L26.0591 4.2828H20.3955V4.42421L20.3925 4.4227ZM63.3576 4.4227H58.6612C57.5556 4.4227 56.7267 4.9868 56.3131 5.97361L48.1629 25.8586H53.8265L54.9321 22.6154H61.8398L62.5302 25.8586H67.5034L63.3591 4.4227H63.3576ZM56.7267 18.244L59.6285 10.2051L61.2862 18.244H56.7267ZM40.977 10.3465C40.977 9.64103 41.6675 8.79562 43.3252 8.51282C44.154 8.37142 46.2269 8.37142 48.7135 9.49962L49.6807 4.9868C48.4367 4.5641 46.6421 4 44.5692 4C39.1809 4 35.4518 6.96191 35.4518 11.052C35.4518 14.1554 38.2151 15.8477 40.1481 16.8345C42.221 17.8213 42.9115 18.5268 42.9115 19.5136C42.9115 20.9246 41.2538 21.6286 39.5961 21.6286C36.8327 21.6286 35.3134 20.9231 34.0709 20.2176L33.1036 24.8718C34.3477 25.4359 36.6958 26 39.1824 26C44.846 26 48.5766 23.1795 48.5766 18.6667C48.5766 13.3069 40.8401 12.8842 40.9785 10.3465H40.977Z" fill="#BFDFFF"/>
</g>
<g clip-path="url(#clip1_135_1811)">
<path d="M89.7882 29.921V27.929C89.8142 27.589 89.6873 27.255 89.4402 27.013C89.1922 26.771 88.8482 26.644 88.4973 26.666C88.0363 26.637 87.5943 26.853 87.3453 27.23C87.1182 26.864 86.7013 26.647 86.2603 26.666C85.8763 26.648 85.5113 26.827 85.3003 27.137V26.744H84.5622V29.914H85.3003V28.165C85.2573 27.943 85.3242 27.714 85.4832 27.548C85.6422 27.382 85.8722 27.298 86.1052 27.323C86.5773 27.323 86.8432 27.623 86.8432 28.158V29.921H87.5813V28.165C87.5382 27.943 87.6052 27.714 87.7642 27.548C87.9232 27.382 88.1533 27.298 88.3863 27.323C88.8733 27.323 89.1242 27.623 89.1242 28.158V29.921H89.7882ZM100.447 26.751H99.2812V25.787H98.5432V26.751H97.8792V27.379H98.5432V28.807C98.5432 29.521 98.8382 29.978 99.6802 29.978C99.9952 29.98 100.305 29.896 100.573 29.735L100.366 29.142C100.176 29.251 99.9602 29.313 99.7392 29.32C99.3852 29.32 99.2672 29.106 99.2672 28.792V27.364H100.433L100.448 26.75L100.447 26.751ZM106.53 26.672C106.176 26.662 105.845 26.84 105.666 27.136V26.75H104.928V29.92H105.666V28.142C105.666 27.621 105.902 27.328 106.367 27.328C106.518 27.326 106.669 27.353 106.81 27.407L107.031 26.757C106.867 26.701 106.695 26.672 106.522 26.671H106.529L106.53 26.672ZM97.3322 27C96.9282 26.769 96.4653 26.655 95.9963 26.672C95.1693 26.672 94.6302 27.058 94.6302 27.686C94.6302 28.207 95.0292 28.521 95.7592 28.621L96.0992 28.664C96.4902 28.714 96.6753 28.814 96.6753 28.992C96.6753 29.17 96.4173 29.378 95.9373 29.378C95.5453 29.391 95.1602 29.275 94.8442 29.05L94.5042 29.585C94.9192 29.866 95.4153 30.011 95.9213 29.999C96.8663 29.999 97.3973 29.571 97.3973 28.964C97.3973 28.357 96.9613 28.114 96.2533 28.014L95.9132 27.971C95.6032 27.928 95.3593 27.871 95.3593 27.657C95.3593 27.443 95.5952 27.286 95.9862 27.286C96.3442 27.292 96.6942 27.385 97.0052 27.557L97.3302 27H97.3322ZM116.444 26.672C116.09 26.662 115.759 26.84 115.58 27.136V26.75H114.842V29.92H115.58V28.142C115.58 27.621 115.816 27.328 116.281 27.328C116.432 27.326 116.583 27.353 116.724 27.407L116.945 26.757C116.781 26.701 116.609 26.672 116.436 26.671H116.443L116.444 26.672ZM107.747 29.536C108.082 29.85 108.538 30.013 109.003 29.984C109.432 30.005 109.853 29.87 110.184 29.606L109.844 29.049C109.597 29.229 109.297 29.329 108.988 29.335C108.409 29.335 107.94 28.881 107.94 28.321C107.94 27.761 108.409 27.307 108.988 27.307C109.297 27.313 109.597 27.413 109.844 27.593L110.184 27.036C109.853 26.771 109.432 26.636 109.003 26.658C108.532 26.629 108.071 26.796 107.736 27.116C107.4 27.436 107.222 27.88 107.246 28.336C107.231 28.787 107.412 29.223 107.747 29.537V29.536ZM113.927 28.335V26.75H113.189V27.128C112.942 26.821 112.557 26.649 112.156 26.664C111.206 26.664 110.436 27.409 110.436 28.327C110.436 29.246 111.206 29.99 112.156 29.99C112.558 30.005 112.942 29.833 113.189 29.526V29.912H113.927V28.334V28.335ZM112.293 27.436C112.83 27.455 113.253 27.885 113.246 28.405C113.239 28.925 112.803 29.344 112.266 29.348C111.991 29.353 111.727 29.246 111.537 29.053C111.348 28.86 111.25 28.6 111.269 28.334C111.301 27.815 111.756 27.416 112.293 27.435V27.436ZM102.669 26.664C101.719 26.678 100.961 27.434 100.975 28.352C100.989 29.271 101.771 30.004 102.721 29.99C103.21 30.008 103.688 29.85 104.064 29.547L103.717 29.033C103.446 29.242 103.111 29.357 102.765 29.361C102.273 29.403 101.837 29.057 101.783 28.583H104.219V28.319C104.26 27.894 104.115 27.472 103.819 27.155C103.523 26.839 103.103 26.657 102.661 26.655L102.668 26.662L102.669 26.664ZM103.248 27.498C103.403 27.643 103.492 27.841 103.496 28.049H101.798C101.822 27.605 102.21 27.262 102.669 27.278C102.884 27.274 103.092 27.353 103.248 27.498ZM120.534 28.335V25.479H119.796V27.128C119.549 26.821 119.164 26.649 118.763 26.664C117.813 26.664 117.043 27.409 117.043 28.327C117.043 29.246 117.813 29.99 118.763 29.99C119.165 30.005 119.549 29.833 119.796 29.526V29.912H120.534V28.334V28.335ZM118.906 27.422C119.449 27.44 119.877 27.875 119.868 28.401C119.859 28.927 119.416 29.348 118.873 29.349C118.598 29.354 118.334 29.247 118.144 29.054C117.955 28.861 117.857 28.601 117.876 28.335C117.904 27.81 118.362 27.404 118.905 27.422H118.906ZM93.7902 28.335V26.75H93.0522V27.128C92.8052 26.821 92.4202 26.649 92.0192 26.664C91.0693 26.664 90.2993 27.409 90.2993 28.327C90.2993 29.246 91.0693 29.99 92.0192 29.99C92.4213 30.005 92.8052 29.833 93.0522 29.526V29.912H93.7902V28.334V28.335ZM91.1333 28.335C91.1652 27.816 91.6203 27.417 92.1573 27.436C92.6943 27.455 93.1173 27.885 93.1103 28.405C93.1033 28.925 92.6672 29.344 92.1302 29.348C91.8593 29.347 91.6013 29.237 91.4163 29.045C91.2312 28.853 91.1372 28.596 91.1562 28.334H91.1342L91.1333 28.335ZM101.689 21.91C96.5342 25.226 89.6372 24.338 85.5592 19.834C81.4802 15.33 81.4802 8.60101 85.5592 4.09601C89.6382 -0.40799 96.5352 -1.29599 101.689 2.02001L101.394 2.25601C98.4862 4.69701 96.8153 8.23801 96.8153 11.962C96.8153 15.686 98.4852 19.227 101.394 21.668L101.689 21.911V21.91ZM110.134 9.65753e-06C107.701 -0.00299034 105.322 0.69301 103.298 1.99901L103.593 2.23501C106.501 4.67601 108.172 8.21701 108.172 11.941C108.172 15.665 106.502 19.206 103.593 21.647L103.298 21.883C107.7 24.722 113.483 24.533 117.677 21.413C121.871 18.293 123.545 12.936 121.838 8.09301C120.131 3.24901 115.424 -0.00499034 110.133 0.00100966L110.134 9.65753e-06ZM102.036 2.92701C99.3362 5.19301 97.7863 8.48001 97.7863 11.937C97.7863 15.394 99.3372 18.681 102.036 20.947L102.501 21.318L102.966 20.947C105.666 18.681 107.216 15.394 107.216 11.937C107.216 8.48001 105.665 5.19301 102.966 2.92701L102.501 2.55601C102.339 2.67701 102.184 2.79901 102.036 2.92701Z" fill="#BFDFFF"/>
</g>
<g clip-path="url(#clip2_135_1811)">
<path fill-rule="evenodd" clip-rule="evenodd" d="M137.5 0H167.5V30H137.5V0ZM143.323 20.905V16.195H148.31L148.845 16.8917L149.398 16.195H167.5V20.58C167.5 20.58 167.027 20.9 166.478 20.905H156.455L155.852 20.1633V20.905H153.877V19.6383C153.877 19.6383 153.607 19.815 153.023 19.815H152.35V20.905H149.357L148.822 20.1933L148.278 20.905H143.323ZM137.5 12.645L138.625 10.0233H140.57L141.208 11.4916V10.0233H143.627L144.007 11.085L144.375 10.0233H155.228V10.5566C155.228 10.5566 155.798 10.0233 156.737 10.0233L160.258 10.035L160.885 11.485V10.0233H162.908L163.465 10.8566V10.0233H165.507V14.7333H163.465L162.932 13.8983V14.7333H159.958L159.66 13.9916H158.862L158.568 14.7333H156.552C155.745 14.7333 155.228 14.21 155.228 14.21V14.7333H152.187L151.583 13.9916V14.7333H140.282L139.983 13.9916H139.187L138.89 14.7333H137.5V12.645Z" fill="#BFDFFF"/>
<path fill-rule="evenodd" clip-rule="evenodd" d="M139.023 10.6033L137.507 14.13H138.493L138.773 13.4233H140.4L140.678 14.13H141.688L140.173 10.6033H139.023ZM139.583 11.425L140.08 12.6583H139.087L139.583 11.425ZM141.792 14.13V10.6033L143.195 10.6083L144.012 12.8817L144.808 10.6033H146.2V14.13H145.318V11.5317L144.385 14.13H143.612L142.673 11.5317V14.13H141.792ZM146.803 14.13V10.6033H149.682V11.3917H147.695V11.995H149.635V12.7383H147.695V13.365H149.682V14.13H146.803ZM150.192 10.6033V14.13H151.073V12.8767H151.445L152.502 14.13H153.578L152.418 12.83C152.895 12.79 153.385 12.3817 153.385 11.7467C153.385 11.005 152.802 10.6033 152.152 10.6033H150.192ZM151.073 11.3933H152.082C152.323 11.3933 152.5 11.5817 152.5 11.765C152.5 12 152.272 12.1367 152.095 12.1367H151.073V11.3933ZM154.647 14.13H153.747V10.6033H154.647V14.13ZM156.78 14.13H156.585C155.645 14.13 155.073 13.39 155.073 12.3817C155.073 11.3483 155.638 10.6033 156.825 10.6033H157.8V11.4383H156.79C156.308 11.4383 155.967 11.815 155.967 12.39C155.967 13.0733 156.357 13.36 156.918 13.36H157.15L156.78 14.13ZM158.7 10.6033L157.183 14.13H158.17L158.45 13.4233H160.077L160.355 14.13H161.365L159.85 10.6033H158.7ZM159.26 11.425L159.757 12.6583H158.763L159.26 11.425ZM161.468 14.13V10.6033H162.588L164.02 12.8183V10.6033H164.902V14.13H163.817L162.35 11.8567V14.13H161.468ZM143.927 20.3016V16.775H146.803V17.5633H144.818V18.1666H146.758V18.91H144.818V19.5366H146.803V20.3016H143.927ZM158.025 20.3016V16.775H160.902V17.5633H158.915V18.1666H160.845V18.91H158.915V19.5366H160.902V20.3016H158.025ZM146.915 20.3016L148.317 18.56L146.882 16.775H147.993L148.847 17.8783L149.705 16.775H150.772L149.357 18.5383L150.76 20.3016H149.648L148.82 19.215L148.01 20.3016H146.915ZM150.865 16.775V20.3016H151.77V19.1883H152.698C153.483 19.1883 154.078 18.7716 154.078 17.9616C154.078 17.29 153.612 16.775 152.812 16.775H150.865ZM151.77 17.5733H152.747C153 17.5733 153.182 17.7283 153.182 17.98C153.182 18.215 153.002 18.3866 152.743 18.3866H151.768V17.5733H151.77ZM154.46 16.775V20.3016H155.342V19.0483H155.713L156.77 20.3016H157.847L156.687 19.0016C157.163 18.9616 157.653 18.5533 157.653 17.9183C157.653 17.1766 157.07 16.775 156.42 16.775H154.46ZM155.342 17.5633H156.35C156.592 17.5633 156.768 17.7516 156.768 17.935C156.768 18.17 156.54 18.3066 156.363 18.3066H155.342V17.5633ZM161.31 20.3016V19.5366H163.075C163.337 19.5366 163.45 19.3949 163.45 19.2416C163.45 19.0933 163.337 18.9433 163.075 18.9433H162.278C161.585 18.9433 161.2 18.5216 161.2 17.8866C161.2 17.3216 161.553 16.7766 162.583 16.7766H164.3L163.928 17.5699H162.443C162.16 17.5699 162.072 17.7183 162.072 17.8616C162.072 18.0083 162.18 18.1683 162.397 18.1683H163.232C164.005 18.1683 164.34 18.6066 164.34 19.1799C164.34 19.7966 163.967 20.3016 163.19 20.3016H161.31ZM164.545 20.3016V19.5366H166.235C166.497 19.5366 166.61 19.3949 166.61 19.2416C166.61 19.0933 166.497 18.9433 166.235 18.9433H165.512C164.818 18.9433 164.433 18.5216 164.433 17.8866C164.433 17.3216 164.787 16.7766 165.817 16.7766H167.5L167.128 17.5699H165.678C165.395 17.5699 165.307 17.7183 165.307 17.8616C165.307 18.0083 165.415 18.1683 165.632 18.1683H166.392C167.165 18.1683 167.5 18.6066 167.5 19.1799C167.5 19.7966 167.127 20.3016 166.35 20.3016H164.545Z" fill="#BFDFFF"/>
</g>
<g clip-path="url(#clip3_135_1811)">
<path fill-rule="evenodd" clip-rule="evenodd" d="M7.32846 53.9525V59.5763C7.32846 60.0332 7.25462 60.4763 7.02385 60.8779C6.67154 61.5 6.04091 61.9141 5.33 61.9902C4.31923 62.1332 3.32693 61.9809 2.36462 61.6786C1.76923 61.4894 1.19462 61.2309 0.608465 61.0094C0.497696 60.9655 0.500004 60.8894 0.500004 60.7994V48.8225C0.517742 46.5862 2.06339 44.6525 4.24077 44.1425C4.64231 44.0548 5.06 44.0109 5.46847 44.0086C7.7577 43.9994 10.0469 44.0086 12.3338 44.0086H12.5323V44.2071C12.5323 52.3071 12.5415 60.4071 12.5254 68.5071C12.5103 70.8022 10.8785 72.7681 8.62539 73.2055C8.27693 73.2748 7.91462 73.3025 7.55923 73.3048C5.27462 73.314 2.99231 73.3117 0.710004 73.314H0.516157V63.0425C0.96385 63.1325 1.40693 63.2432 1.85693 63.3055C2.68539 63.4163 3.51616 63.5317 4.34923 63.5825C5.10616 63.6286 5.87231 63.6263 6.62923 63.5871C7.7277 63.5317 8.80539 63.3355 9.78616 62.7909C10.8615 62.1932 11.4546 61.2725 11.5238 60.0448C11.57 59.2763 11.5562 58.5032 11.5585 57.7325C11.5631 56.5417 11.5585 55.3509 11.5631 54.1602C11.5631 53.994 11.5215 53.9432 11.3508 53.9455C10.0769 53.9525 8.80308 53.9502 7.52923 53.9525H7.32846ZM14.0185 73.3071V62.0733C14.0531 62.0871 14.0785 62.094 14.0969 62.1079C14.9854 62.821 16.0239 63.1833 17.1223 63.391C18.5531 63.6633 19.9931 63.6794 21.4377 63.564C22.4797 63.4697 23.5138 63.3024 24.5323 63.0633C24.6546 63.0379 24.7054 62.9963 24.7054 62.8625C24.6962 62.2948 24.7008 61.7248 24.7008 61.1571V60.9633C24.6315 60.991 24.5854 61.0094 24.5392 61.0325C23.5677 61.5056 22.5546 61.8448 21.4769 61.9787C20.5308 62.0963 19.5939 62.0987 18.6939 61.7317C17.5885 61.2794 16.9839 60.4371 16.82 59.2694C16.7214 58.64 16.7736 57.9962 16.9723 57.391C17.3392 56.3133 18.1192 55.6994 19.1923 55.4179C19.9539 55.2217 20.72 55.2402 21.4908 55.3371C22.5909 55.4836 23.6574 55.8193 24.6431 56.3294C24.6523 56.334 24.6639 56.3294 24.6892 56.3294C24.6939 56.2856 24.7008 56.2394 24.7008 56.1933C24.7008 55.6094 24.6985 55.0233 24.7031 54.4394C24.7031 54.3356 24.6777 54.2825 24.5692 54.2548C22.7785 53.8394 20.9692 53.6156 19.1277 53.701C17.9646 53.7517 16.8131 53.9017 15.7123 54.3102C15.14 54.5225 14.6046 54.8017 14.1269 55.1871L14.0115 55.261V48.8779C14.009 47.5797 14.526 46.3345 15.4472 45.4198C16.3684 44.5051 17.6173 43.9969 18.9154 44.0087C21.2369 43.9948 23.5585 44.0017 25.88 44.0017C25.9285 44.0017 25.9769 44.0063 26.0415 44.011C26.0462 44.0802 26.0508 44.1448 26.0508 44.2094C26.0508 52.3279 26.0646 60.444 26.0392 68.5625C26.0346 70.4017 25.1185 71.7794 23.5377 72.7025C22.8162 73.1157 21.9967 73.3269 21.1654 73.314H14.1846L14.0185 73.3071V73.3071ZM27.5462 73.3117V63.361H27.7608C30.2577 63.361 32.7569 63.3702 35.2539 63.361C36.0131 63.361 36.7285 63.1694 37.3423 62.6964C37.951 62.2537 38.2878 61.528 38.2328 60.7774C38.1779 60.0268 37.739 59.3579 37.0723 59.0087C36.5659 58.7369 36.0073 58.5764 35.4339 58.5379C35.7085 58.4548 35.9692 58.3971 36.2115 58.2956C36.9431 57.9933 37.4438 57.4787 37.61 56.6802C37.8099 55.7786 37.3905 54.8534 36.5808 54.4094C35.9623 54.0587 35.2862 53.9525 34.5915 53.9525C32.3185 53.9479 30.0454 53.9525 27.7746 53.9525H27.5369V48.8525C27.5458 46.1689 29.7272 44 32.4108 44.0064C34.7369 44.0064 37.0631 44.0133 39.3892 44.011C39.5738 44.011 39.5623 44.1033 39.5623 44.2279V68.2971C39.5531 70.0925 38.8169 71.5117 37.3285 72.5202C36.68 72.9587 35.9531 73.2148 35.1685 73.2725C34.7344 73.299 34.2995 73.3106 33.8646 73.3071L27.7262 73.3117H27.5462Z" fill="#BFDFFF"/>
<path d="M29.9253 61.8055V59.2671C29.9806 59.2648 30.0337 59.2578 30.0868 59.2578C30.9729 59.2578 31.8591 59.2555 32.7453 59.2601C33.3776 59.2648 33.8599 59.6178 34.0122 60.1717C34.2429 61.014 33.6983 61.7871 32.8122 61.8171C31.866 61.8471 30.9199 61.8217 29.9714 61.8217C29.9622 61.8217 29.9529 61.8148 29.9253 61.8032V61.8055ZM29.9299 57.7855V55.4317C29.9829 55.4294 30.0291 55.4224 30.0776 55.4224C30.8714 55.4224 31.6653 55.4155 32.4568 55.4294C32.6652 55.4318 32.8712 55.4741 33.0637 55.554C33.5668 55.7732 33.8068 56.2855 33.7099 56.8532C33.616 57.3809 33.1612 57.768 32.6253 57.7763C31.7345 57.8063 30.8414 57.7855 29.9299 57.7855Z" fill="#BFDFFF"/>
</g>
<g clip-path="url(#clip4_135_1811)">
<path d="M91.8484 55.6798C91.4803 55.563 91.0008 55.9745 90.7917 56.6048C90.5716 57.235 90.7061 57.8408 91.0783 57.9549C91.4491 58.073 91.9272 57.6588 92.1377 57.0299C92.3537 56.401 92.2219 55.7952 91.8484 55.6798ZM88.3536 53.2566C88.1838 53.1453 87.9121 53.0923 87.54 53.0923H86.4017L85.9915 55.0849H87.3335C87.6826 55.0849 87.9583 55.0034 88.1634 54.8417C88.3644 54.6801 88.4975 54.4315 88.5709 54.0947C88.5831 54.0336 88.5885 53.9765 88.5994 53.9249C88.6021 53.876 88.6103 53.8285 88.6103 53.7809C88.6103 53.5405 88.5261 53.3667 88.3536 53.2566ZM86.903 65.333L86.6354 66.2811H87.6826L87.9502 65.333H86.903ZM87.9448 61.6684L87.5876 62.9166C87.5876 62.9166 88.1975 62.6817 88.7258 62.6151C88.8426 62.1791 88.9934 61.6684 88.9934 61.6684H87.9448ZM87.4219 63.5034L87.0619 64.8087C87.0619 64.8087 87.741 64.4745 88.2029 64.446C88.34 63.9434 88.4731 63.5034 88.4731 63.5034H87.4219ZM77.6518 55.5602C77.5201 55.4176 77.334 55.3456 77.0922 55.3456C76.773 55.3456 76.5136 55.4584 76.3099 55.6825C76.1048 55.908 75.9594 56.2462 75.8671 56.6985C75.8549 56.7677 75.844 56.8384 75.8358 56.9049C75.8291 56.9742 75.8263 57.0394 75.8277 57.0992C75.8277 57.3559 75.8942 57.5542 76.0274 57.6941C76.1578 57.834 76.3438 57.9033 76.5883 57.9033C76.9089 57.9033 77.1683 57.7919 77.372 57.5705C77.5758 57.3504 77.7198 57.0163 77.8094 56.5735C77.823 56.5042 77.8339 56.4323 77.8406 56.3589C77.8461 56.2883 77.8502 56.2217 77.8502 56.1606C77.8502 55.9039 77.785 55.7029 77.6518 55.5602Z" fill="#BFDFFF"/>
<path d="M102.213 44.0068L90.6478 44.0041H90.6451C90.6329 44.0041 90.6247 44.0054 90.6166 44.0054C89.0274 44.0543 87.0484 45.3284 86.6885 46.8999L85.6603 51.446H84.7068L85.735 46.8999C86.0963 45.3284 88.0753 44.0543 89.6644 44.0054C89.6726 44.0054 89.6821 44.0041 89.6916 44.0041H85.0681L76.8451 44C76.8248 44 76.8044 44.0014 76.7827 44.0027C75.1894 44.0353 73.1846 45.3175 72.8247 46.9012L71.7965 51.4474H70.6854L71.7123 46.9012C72.0722 45.3189 74.0783 44.0353 75.6716 44.0027L65.0581 44C63.4554 44 61.4017 45.2971 61.0349 46.9012L55.5638 71.1028C55.5299 71.2495 55.5109 71.3948 55.5 71.5361V71.9843C55.6087 73.1389 56.4915 73.9823 57.7601 74H68.4388C66.8619 73.9756 65.8799 72.6852 66.2412 71.0987L67.5111 65.481H68.6249L67.3549 71.0987C66.9936 72.6866 67.9757 73.9756 69.5513 74H82.4684C80.89 73.9756 79.9107 72.6852 80.2707 71.0987L80.6958 69.2162H81.6493L81.2242 71.0987C80.8642 72.6866 81.8449 73.9756 83.4219 74H95.5715C97.1267 73.9226 98.6344 72.6635 98.9889 71.1096L104.459 46.9081C104.823 45.3067 103.815 44.0054 102.213 44.0068ZM65.706 58.217C65.1287 58.6435 64.3817 58.8581 63.4676 58.8581C62.6064 58.8581 61.9762 58.6394 61.5742 58.2007C61.2957 57.8896 61.1558 57.493 61.1558 57.0149C61.1558 56.8166 61.1789 56.6033 61.2264 56.3752L62.2003 51.6783H63.6713L62.7097 56.3208C62.6798 56.4512 62.6689 56.5707 62.6703 56.678C62.6689 56.9157 62.7273 57.11 62.8469 57.2621C63.0207 57.4889 63.3032 57.6017 63.6985 57.6017C64.1508 57.6017 64.523 57.4916 64.8123 57.2675C65.1016 57.0461 65.2904 56.7324 65.3746 56.3222L66.339 51.6796H67.8018L66.8279 56.3765C66.6649 57.1738 66.2887 57.7837 65.706 58.217ZM71.5846 55.8658L71.0141 58.7222H69.9451L70.4626 56.1334C70.5156 55.8658 70.5007 55.6661 70.4178 55.5385C70.3377 55.4094 70.1828 55.3456 69.9587 55.3456C69.6844 55.3456 69.4535 55.4312 69.2647 55.6009C69.0759 55.7721 68.9509 56.0098 68.8898 56.3127L68.413 58.7209H67.3441L68.1821 54.5279H69.2212L69.103 55.1323L69.2511 54.9598C69.5893 54.5999 69.9981 54.4206 70.4803 54.4206C70.9177 54.4206 71.2328 54.5483 71.4311 54.8036C71.6253 55.0604 71.6783 55.4121 71.5846 55.8658ZM90.5337 54.9775C91.4302 54.5605 91.8961 54.8077 92.4054 55.2057L92.8917 54.8702L94.0448 54.7683L93.1756 58.7209L91.8472 58.6869L91.6516 58.4601C88.2872 59.8944 89.3099 55.5439 90.5337 54.9775ZM92.9121 61.3016L92.673 62.1247H91.7018C91.331 62.1451 91.1422 62.0065 91.1232 61.6996L91.0784 60.632H92.4013L92.457 61.1182C92.4475 61.2432 92.5236 61.3016 92.6798 61.3016H92.9121ZM85.2311 51.9282H88.2505C88.8291 51.9282 89.276 52.0613 89.587 52.3194C89.8953 52.5802 90.0488 52.955 90.0488 53.444V53.459C90.0488 53.5513 90.042 53.6573 90.0325 53.77C90.0176 53.8814 90.0013 53.9955 89.9741 54.1136C89.841 54.7602 89.5327 55.279 89.0559 55.6743C88.5751 56.0668 88.0087 56.2651 87.3581 56.2651H85.7391L85.2392 58.7209H83.8388L85.2311 51.9282ZM80.0968 54.5293H81.1373L81.0191 55.1337L81.1644 54.9612C81.5013 54.6013 81.9128 54.422 82.3936 54.422C82.8283 54.422 83.1448 54.5496 83.3431 54.805C83.5346 55.0604 83.5903 55.4135 83.4966 55.8658L82.9261 58.7222H81.8571L82.3746 56.1334C82.4276 55.8658 82.4154 55.6661 82.3325 55.5385C82.247 55.4094 82.0962 55.3456 81.8734 55.3456C81.5991 55.3456 81.3682 55.4312 81.178 55.6009C80.9892 55.7721 80.8642 56.0098 80.8045 56.3127L80.3264 58.7209H79.2588L80.0968 54.5293ZM79.7654 61.1834L79.5522 61.9712H77.5582C77.3287 62.3162 77.0462 62.4778 76.7052 62.4575H75.6662L75.893 61.6344H76.094C76.2801 61.6344 76.4037 61.5732 76.4621 61.451L76.9837 60.6686H78.3813L78.0893 61.1834H79.7654ZM73.2539 58.7195H72.1048L73.0053 54.5293H74.1571L73.2539 58.7195ZM74.312 54.0199H73.1507L73.3666 53.0012H74.5293L74.312 54.0199ZM74.7357 56.9483C74.748 56.841 74.7629 56.7392 74.7819 56.6427C74.9205 55.9609 75.2098 55.4203 75.658 55.0223C76.1049 54.6216 76.6455 54.4206 77.2771 54.4206C77.7959 54.4206 78.2061 54.5659 78.5063 54.8553C78.8065 55.1459 78.9572 55.5398 78.9572 56.0383C78.9572 56.1239 78.9504 56.223 78.9396 56.329C78.9246 56.4376 78.9097 56.5409 78.8907 56.6427C78.7576 57.3124 78.4683 57.8475 78.0187 58.2387C77.5704 58.6339 77.0326 58.8295 76.4051 58.8295C75.8862 58.8295 75.4774 58.6869 75.1772 58.403C74.8743 58.1137 74.7222 57.7266 74.7208 57.2336C74.7208 57.1466 74.7262 57.0516 74.7357 56.9483ZM78.1138 67.5903H75.8658C75.438 67.5903 75.2926 67.3459 75.4257 66.8569L75.8522 65.3003H74.9341L75.1663 64.4419H76.0859L76.31 63.6188H75.4325L75.6634 62.7644H79.3362L79.1026 63.6188H77.6261L77.4007 64.4446H78.8377L78.6041 65.3003H77.1657L76.8316 66.5187C76.7501 66.7211 76.8587 66.8134 77.1575 66.793H78.3284L78.1138 67.5903ZM84.0358 65.1441C83.9231 65.5529 83.6242 65.7648 83.1407 65.7866H82.5023L82.4996 66.6722C82.4874 66.8107 82.6164 66.884 82.8813 66.884H83.4789L83.282 67.5876H81.8449C81.4442 67.6026 81.2446 67.4124 81.25 67.0063L81.3396 64.6266H82.539L82.5145 65.1441H82.8337C82.9954 65.1441 83.0755 65.0911 83.0755 64.9906L83.1706 64.6551H84.1648L84.0358 65.1441ZM83.2724 64.4093H80.6388L80.0221 66.6694C79.9868 66.789 80.0357 66.8528 80.1702 66.8528H80.689L80.4975 67.555H79.18C78.6734 67.555 78.4642 67.4056 78.547 67.0973L80.2911 60.6618H81.5203L81.4646 61.163C81.4646 61.163 82.1587 60.6428 82.7862 60.6428H85.1115L84.2232 63.8606C84.1499 64.23 83.8334 64.4106 83.2724 64.4093ZM88.9038 67.1951L88.7897 67.5917H87.4301L87.5442 67.1951H84.8589L85.1183 66.2796H85.3873L86.6993 61.667H86.4291L86.7061 60.6904H88.1106L88.0495 61.0503C88.0495 61.0503 88.7653 60.6904 89.2841 60.6904H91.02L90.7443 61.667H90.4726L89.1605 66.2796H89.4335L89.1768 67.1951H88.9038ZM94.7226 63.2819H93.3616L93.1267 64.105H94.4876L94.2323 64.9879H92.7178L92.3755 65.5054H93.1131L93.2856 66.5458C93.3059 66.6491 93.397 66.698 93.5532 66.698H93.7841L93.5409 67.5537H92.7246C92.3035 67.5754 92.0862 67.4355 92.0672 67.1272L91.8689 66.1818L91.1952 67.191C91.0376 67.4763 90.7891 67.6094 90.4604 67.5876H89.2135L89.4593 66.7319H89.8451C90.004 66.7319 90.1412 66.6599 90.2594 66.5187L91.3147 64.992H89.951L90.2064 64.1091H91.6828L91.9192 63.2874H90.44L90.694 62.4018H94.9725L94.7226 63.2819ZM96.3254 59.529C95.8853 60.4717 95.4629 61.0204 95.2143 61.2758C94.9644 61.5298 94.4741 62.1165 93.2883 62.0731L93.3915 61.3546C94.3871 61.0489 94.9264 59.6662 95.2347 59.0523L94.868 54.5401L95.6354 54.5293H96.2805L96.3498 57.3599L97.5641 54.5293H98.792L96.3254 59.529Z" fill="#BFDFFF"/>
<path d="M81.0409 62.945L80.8657 63.5847H82.7401C82.8936 63.6064 82.9805 63.5453 82.9914 63.4013L83.1191 62.945H81.0409ZM81.4212 61.5718L81.1726 62.4397C81.1726 62.4397 81.5176 62.1912 82.0936 62.1817C82.6708 62.1735 83.3282 62.1817 83.3282 62.1817L83.4953 61.5718H81.4212Z" fill="#BFDFFF"/>
</g>
<defs>
<clipPath id="clip0_135_1811">
<rect width="67" height="30" fill="white" transform="translate(0.5)"/>
</clipPath>
<clipPath id="clip1_135_1811">
<rect width="40" height="30" fill="white" transform="translate(82.5)"/>
</clipPath>
<clipPath id="clip2_135_1811">
<rect width="30" height="30" fill="white" transform="translate(137.5)"/>
</clipPath>
<clipPath id="clip3_135_1811">
<rect width="40" height="30" fill="white" transform="translate(0.5 44)"/>
</clipPath>
<clipPath id="clip4_135_1811">
<rect width="49" height="30" fill="white" transform="translate(55.5 44)"/>
</clipPath>
</defs>
</svg>
