<svg width="109" height="18" viewBox="0 0 109 18" fill="none" xmlns="http://www.w3.org/2000/svg">
<path fill-rule="evenodd" clip-rule="evenodd" d="M106.299 6.43811V7.12671H105.895V5.41561C106.055 5.38431 106.278 5.36341 106.565 5.36341C106.895 5.36341 107.044 5.41561 107.172 5.48861C107.267 5.56171 107.342 5.69731 107.342 5.86421C107.342 6.05201 107.193 6.19811 106.98 6.26071V6.28161C107.15 6.34421 107.246 6.46941 107.299 6.69891C107.352 6.95971 107.384 7.06411 107.427 7.12671H106.991C106.937 7.06411 106.906 6.90761 106.852 6.70931C106.82 6.52151 106.714 6.43811 106.491 6.43811H106.299ZM106.31 5.66601V6.15641H106.501C106.725 6.15641 106.906 6.08331 106.906 5.90601C106.906 5.74951 106.789 5.64511 106.533 5.64511C106.427 5.64511 106.352 5.65561 106.31 5.66601ZM106.576 4.51831C107.586 4.51831 108.363 5.27991 108.363 6.22941C108.363 7.19971 107.586 7.96141 106.576 7.96141C105.576 7.96141 104.778 7.19971 104.778 6.22941C104.778 5.27991 105.576 4.51831 106.576 4.51831ZM106.576 4.86261C105.799 4.86261 105.225 5.47821 105.225 6.22941C105.225 6.99101 105.799 7.59621 106.586 7.59621C107.352 7.59621 107.916 6.99101 107.916 6.23981C107.916 5.47821 107.352 4.86261 106.576 4.86261Z" fill="#80C600"/>
<path fill-rule="evenodd" clip-rule="evenodd" d="M102.332 9.69955C102.332 9.06555 102.057 8.00345 100.852 8.00345C99.7509 8.00345 99.3029 8.99715 99.2339 9.69955H102.332ZM99.2519 11.4815C99.3379 12.5606 100.405 13.0746 101.627 13.0746C102.521 13.0746 103.245 12.9547 103.95 12.7318L104.294 14.4966C103.434 14.8391 102.384 15.0105 101.248 15.0105C98.3909 15.0105 96.7559 13.366 96.7559 10.7448C96.7559 8.62005 98.0809 6.27295 101.007 6.27295C103.726 6.27295 104.759 8.38025 104.759 10.4532C104.759 10.899 104.708 11.2927 104.673 11.4815H99.2519Z" fill="#80C600"/>
<path fill-rule="evenodd" clip-rule="evenodd" d="M94.4843 4.06299V6.46159H96.36V8.38059H94.4843V11.4129C94.4843 12.4238 94.725 12.8864 95.517 12.8864C95.844 12.8864 96.102 12.8521 96.291 12.8178L96.309 14.788C95.964 14.9251 95.345 15.0109 94.605 15.0109C93.7614 15.0109 93.0558 14.7194 92.6428 14.2913C92.161 13.7943 91.9199 12.9892 91.9199 11.8069V8.38059H90.8013V6.46159H91.9199V4.64559L94.4843 4.06299Z" fill="#80C600"/>
<path fill-rule="evenodd" clip-rule="evenodd" d="M87.0837 14.8395H89.6998V6.46146H87.0837V14.8395ZM89.7857 4.13156C89.7857 4.85116 89.2353 5.43346 88.3747 5.43346C87.5485 5.43346 86.9978 4.85116 87.015 4.13156C86.9978 3.37766 87.5485 2.81226 88.392 2.81226C89.2353 2.81226 89.7687 3.37766 89.7857 4.13156Z" fill="#80C600"/>
<path fill-rule="evenodd" clip-rule="evenodd" d="M78.3924 12.1496C79.0977 12.5092 80.1821 12.8691 81.3006 12.8691C82.5056 12.8691 83.1423 12.3724 83.1423 11.6185C83.1423 10.8989 82.5918 10.4875 81.1974 9.99082C79.2699 9.32272 78.0136 8.26032 78.0136 6.58162C78.0136 4.61132 79.6657 3.10352 82.4022 3.10352C83.7105 3.10352 84.674 3.37762 85.3626 3.68612L84.7772 5.79331C84.3126 5.57071 83.4866 5.24512 82.3507 5.24512C81.2146 5.24512 80.6639 5.75902 80.6639 6.35872C80.6639 7.09552 81.318 7.42081 82.8152 7.98641C84.8634 8.74012 85.8271 9.80252 85.8271 11.43C85.8271 13.3659 84.3299 15.0108 81.1459 15.0108C79.8208 15.0108 78.5126 14.668 77.8589 14.3083L78.3924 12.1496Z" fill="#80C600"/>
<path fill-rule="evenodd" clip-rule="evenodd" d="M73.6073 10.0081C73.6073 9.87099 73.5901 9.68249 73.5728 9.54569C73.4179 8.84299 72.85 8.26049 72.0412 8.26049C70.8538 8.26049 70.2339 9.32279 70.2339 10.6421C70.2339 12.0641 70.9397 12.9549 72.0239 12.9549C72.7812 12.9549 73.3834 12.441 73.5383 11.7042C73.5901 11.5157 73.6073 11.3274 73.6073 11.1045V10.0081ZM76.2231 2.67529V12.3382C76.2231 13.2804 76.2576 14.2741 76.2921 14.8395H73.9686L73.8482 13.6058H73.8137C73.2802 14.5483 72.2648 15.0281 71.1804 15.0281C69.1842 15.0281 67.5836 13.3319 67.5836 10.7277C67.5666 7.90079 69.3391 6.27309 71.3528 6.27309C72.3855 6.27309 73.1943 6.63299 73.5728 7.21549H73.6073V2.67529H76.2231Z" fill="#323835"/>
<path fill-rule="evenodd" clip-rule="evenodd" d="M61.5376 11.439C61.6236 12.5181 62.6905 13.0322 63.9126 13.0322C64.8076 13.0322 65.5304 12.9123 66.2361 12.6894L66.5801 14.4542C65.7196 14.7967 64.6699 14.9681 63.5338 14.9681C60.6771 14.9681 59.042 13.3235 59.042 10.7023C59.042 8.57757 60.3673 6.23047 63.2929 6.23047C66.0122 6.23047 67.0449 8.33777 67.0449 10.4108C67.0449 10.8565 66.9932 11.2503 66.9589 11.439H61.5376ZM64.6182 9.65707C64.6182 9.02307 64.3429 7.96097 63.1382 7.96097C62.0368 7.96097 61.5891 8.95467 61.5202 9.65707H64.6182Z" fill="#323835"/>
<path fill-rule="evenodd" clip-rule="evenodd" d="M56.7057 4.06299V6.46159H58.5818V8.38059H56.7057V11.4129C56.7057 12.4238 56.9468 12.8864 57.7384 12.8864C58.0655 12.8864 58.3237 12.8521 58.5128 12.8178L58.53 14.788C58.1857 14.9251 57.5662 15.0109 56.8262 15.0109C55.9829 15.0109 55.2773 14.7194 54.8643 14.2913C54.3826 13.7943 54.1417 12.9892 54.1417 11.8069V8.38059H53.0229V6.46159H54.1417V4.64559L56.7057 4.06299Z" fill="#323835"/>
<path fill-rule="evenodd" clip-rule="evenodd" d="M46.5343 12.5608C47.0163 12.8521 48.0145 13.1948 48.7888 13.1948C49.5806 13.1948 49.9077 12.9205 49.9077 12.4924C49.9077 12.064 49.6496 11.8583 48.6686 11.533C46.9303 10.9505 46.2589 10.008 46.2762 9.01429C46.2762 7.45549 47.6187 6.27319 49.7011 6.27319C50.682 6.27319 51.5598 6.49579 52.076 6.75299L51.6113 8.55189C51.2327 8.34619 50.5099 8.07209 49.787 8.07209C49.1504 8.07209 48.7888 8.32899 48.7888 8.75739C48.7888 9.15159 49.1159 9.35709 50.1486 9.71669C51.7492 10.2652 52.4203 11.0703 52.4376 12.3038C52.4376 13.8629 51.1983 15.0108 48.7888 15.0108C47.6874 15.0108 46.7064 14.7708 46.0698 14.4283L46.5343 12.5608Z" fill="#323835"/>
<path fill-rule="evenodd" clip-rule="evenodd" d="M45.0885 12.1495C45.0885 13.246 45.1227 14.1372 45.1574 14.8394H42.8857L42.765 13.6574H42.7135C42.3865 14.1713 41.5947 15.0279 40.0802 15.0279C38.3764 15.0279 37.1201 13.9656 37.1201 11.3787V6.46143H39.7534V10.9675C39.7534 12.1836 40.1492 12.9204 41.0614 12.9204C41.784 12.9204 42.1971 12.4236 42.3692 12.0125C42.4382 11.8583 42.4552 11.6526 42.4552 11.4471V6.46143H45.0885V12.1495Z" fill="#323835"/>
<path fill-rule="evenodd" clip-rule="evenodd" d="M30.8378 9.21975C30.8378 7.98625 30.8035 7.18105 30.769 6.46145H33.0236L33.1095 8.00345H33.1785C33.6088 6.78705 34.6412 6.27295 35.45 6.27295C35.6911 6.27295 35.8116 6.27295 36.001 6.30725V8.75735C35.8116 8.72305 35.5879 8.68865 35.2953 8.68865C34.3316 8.68865 33.6775 9.20285 33.5053 10.0079C33.4711 10.1791 33.4536 10.3848 33.4536 10.5905V14.8394H30.8378V9.21975Z" fill="#323835"/>
<path fill-rule="evenodd" clip-rule="evenodd" d="M25.1407 5.48504H22.0254V3.29224H30.9406V5.48504H27.7738V14.8395H25.1407V5.48504Z" fill="#323835"/>
<path d="M9.5 17.8349C14.4706 17.8349 18.5 13.8424 18.5 8.91743C18.5 3.99247 14.4706 0 9.5 0C4.52944 0 0.5 3.99247 0.5 8.91743C0.5 13.8424 4.52944 17.8349 9.5 17.8349Z" fill="white"/>
<path fill-rule="evenodd" clip-rule="evenodd" d="M13.7518 17.8349H0.5V4.7048C0.5 2.1064 2.62591 0 5.2482 0H18.5V13.1301C18.5 15.7285 16.3741 17.8349 13.7518 17.8349ZM14.8274 3.7327C14.6814 3.586 14.4422 3.586 14.296 3.7327L7.6535 10.3955C7.5073 10.5422 7.2682 10.5422 7.1223 10.3955L4.7038 7.9699C4.5578 7.8232 4.31857 7.8232 4.17236 7.9699L2.57823 9.5689C2.43226 9.7155 2.43226 9.9553 2.57823 10.102L7.1223 14.6597C7.2682 14.8061 7.5073 14.8061 7.6535 14.6597L16.4218 5.8648C16.5677 5.7181 16.5677 5.4784 16.4218 5.3317L14.8274 3.7327Z" fill="#80C600"/>
</svg>
