<svg width="49" height="30" viewBox="0 0 49 30" fill="none" xmlns="http://www.w3.org/2000/svg">
<path d="M46.7134 0.006791L35.1478 0.004074H35.1451C35.1329 0.004074 35.1247 0.005434 35.1166 0.005434C33.5274 0.05433 31.5484 1.32838 31.1885 2.8999L30.1603 7.44601H29.2068L30.235 2.8999C30.5963 1.32838 32.5753 0.05433 34.1644 0.005433C34.1726 0.005433 34.1821 0.004074 34.1916 0.004074H29.5681L21.3451 0C21.3248 0 21.3044 0.001358 21.2827 0.002716C19.6894 0.035315 17.6846 1.31752 17.3247 2.90125L16.2965 7.44737H15.1854L16.2123 2.90125C16.5722 1.31888 18.5783 0.035315 20.1716 0.002716L9.55811 0C7.95536 0 5.90166 1.29714 5.53493 2.90125L0.063839 27.1028C0.029882 27.2495 0.010866 27.3948 0 27.5361V27.9843C0.108661 29.1389 0.991534 29.9823 2.26015 30H12.9388C11.3619 29.9756 10.3799 28.6852 10.7412 27.0987L12.0111 21.481H13.1249L11.8549 27.0987C11.4936 28.6866 12.4757 29.9756 14.0513 30H26.9684C25.39 29.9756 24.4107 28.6852 24.7707 27.0987L25.1958 25.2162H26.1493L25.7242 27.0987C25.3642 28.6866 26.3449 29.9756 27.9219 30H40.0715C41.6267 29.9226 43.1344 28.6635 43.4889 27.1096L48.9587 2.90805C49.3227 1.30665 48.3148 0.005433 46.7134 0.006791ZM10.206 14.217C9.62874 14.6435 8.8817 14.8581 7.96758 14.8581C7.10644 14.8581 6.47621 14.6394 6.07416 14.2007C5.79572 13.8896 5.65582 13.493 5.65582 13.0149C5.65582 12.8166 5.67891 12.6033 5.72645 12.3752L6.70032 7.67827H8.17132L7.20967 12.3208C7.17979 12.4512 7.16892 12.5707 7.17028 12.678C7.16892 12.9157 7.22733 13.11 7.34686 13.2621C7.52071 13.4889 7.80323 13.6017 8.19849 13.6017C8.65079 13.6017 9.02295 13.4916 9.31227 13.2675C9.60158 13.0461 9.79037 12.7324 9.87459 12.3222L10.839 7.67963H12.3018L11.3279 12.3765C11.1649 13.1738 10.7887 13.7837 10.206 14.217ZM16.0846 11.8658L15.5141 14.7222H14.4451L14.9626 12.1334C15.0156 11.8658 15.0007 11.6661 14.9178 11.5385C14.8377 11.4094 14.6828 11.3456 14.4587 11.3456C14.1844 11.3456 13.9535 11.4312 13.7647 11.6009C13.5759 11.7721 13.4509 12.0098 13.3898 12.3127L12.913 14.7209H11.8441L12.6821 10.5279H13.7212L13.603 11.1323L13.7511 10.9598C14.0893 10.5999 14.4981 10.4206 14.9803 10.4206C15.4177 10.4206 15.7328 10.5483 15.9311 10.8036C16.1253 11.0604 16.1783 11.4121 16.0846 11.8658ZM35.0337 10.9775C35.9302 10.5605 36.3961 10.8077 36.9054 11.2057L37.3917 10.8702L38.5448 10.7683L37.6756 14.7209L36.3472 14.6869L36.1516 14.4601C32.7872 15.8944 33.8099 11.5439 35.0337 10.9775ZM37.4121 17.3016L37.173 18.1247H36.2018C35.831 18.1451 35.6422 18.0065 35.6232 17.6996L35.5784 16.632H36.9013L36.957 17.1182C36.9475 17.2432 37.0236 17.3016 37.1798 17.3016H37.4121ZM29.7311 7.92819H32.7505C33.3291 7.92819 33.776 8.0613 34.087 8.31937C34.3953 8.58016 34.5488 8.95504 34.5488 9.44402V9.45896C34.5488 9.55132 34.542 9.65726 34.5325 9.77C34.5176 9.88138 34.5013 9.99547 34.4741 10.1136C34.341 10.7602 34.0327 11.279 33.5559 11.6743C33.0751 12.0668 32.5087 12.2651 31.8581 12.2651H30.2391L29.7392 14.7209H28.3388L29.7311 7.92819ZM24.5968 10.5293H25.6373L25.5191 11.1337L25.6644 10.9612C26.0013 10.6013 26.4128 10.422 26.8936 10.422C27.3283 10.422 27.6448 10.5496 27.8431 10.805C28.0346 11.0604 28.0903 11.4135 27.9966 11.8658L27.4261 14.7222H26.3571L26.8746 12.1334C26.9276 11.8658 26.9154 11.6661 26.8325 11.5385C26.747 11.4094 26.5962 11.3456 26.3734 11.3456C26.0991 11.3456 25.8682 11.4312 25.678 11.6009C25.4892 11.7721 25.3642 12.0098 25.3045 12.3127L24.8264 14.7209H23.7588L24.5968 10.5293ZM24.2654 17.1834L24.0522 17.9712H22.0582C21.8287 18.3162 21.5462 18.4778 21.2052 18.4575H20.1662L20.393 17.6344H20.594C20.7801 17.6344 20.9037 17.5732 20.9621 17.451L21.4837 16.6686H22.8813L22.5893 17.1834H24.2654ZM17.7539 14.7195H16.6048L17.5053 10.5293H18.6571L17.7539 14.7195ZM18.812 10.0199H17.6507L17.8666 9.00122H19.0293L18.812 10.0199ZM19.2357 12.9483C19.248 12.841 19.2629 12.7392 19.2819 12.6427C19.4205 11.9609 19.7098 11.4203 20.158 11.0223C20.6049 10.6216 21.1455 10.4206 21.7771 10.4206C22.2959 10.4206 22.7061 10.5659 23.0063 10.8553C23.3065 11.1459 23.4572 11.5398 23.4572 12.0383C23.4572 12.1239 23.4504 12.223 23.4396 12.329C23.4246 12.4376 23.4097 12.5409 23.3907 12.6427C23.2576 13.3124 22.9683 13.8475 22.5187 14.2387C22.0704 14.6339 21.5326 14.8295 20.9051 14.8295C20.3862 14.8295 19.9774 14.6869 19.6772 14.403C19.3743 14.1137 19.2222 13.7266 19.2208 13.2336C19.2208 13.1466 19.2262 13.0516 19.2357 12.9483ZM22.6138 23.5903H20.3658C19.938 23.5903 19.7926 23.3459 19.9257 22.8569L20.3522 21.3003H19.4341L19.6663 20.4419H20.5859L20.81 19.6188H19.9325L20.1634 18.7644H23.8362L23.6026 19.6188H22.1261L21.9007 20.4446H23.3377L23.1041 21.3003H21.6657L21.3316 22.5187C21.2501 22.7211 21.3587 22.8134 21.6575 22.793H22.8284L22.6138 23.5903ZM28.5358 21.1441C28.4231 21.5529 28.1242 21.7648 27.6407 21.7866H27.0023L26.9996 22.6722C26.9874 22.8107 27.1164 22.884 27.3813 22.884H27.9789L27.782 23.5876H26.3449C25.9442 23.6026 25.7446 23.4124 25.75 23.0063L25.8396 20.6266H27.039L27.0145 21.1441H27.3337C27.4954 21.1441 27.5755 21.0911 27.5755 20.9906L27.6706 20.6551H28.6648L28.5358 21.1441ZM27.7724 20.4093H25.1388L24.5221 22.6694C24.4868 22.789 24.5357 22.8528 24.6702 22.8528H25.189L24.9975 23.555H23.68C23.1734 23.555 22.9642 23.4056 23.047 23.0973L24.7911 16.6618H26.0203L25.9646 17.163C25.9646 17.163 26.6587 16.6428 27.2862 16.6428H29.6115L28.7232 19.8606C28.6499 20.23 28.3334 20.4106 27.7724 20.4093ZM33.4038 23.1951L33.2897 23.5917H31.9301L32.0442 23.1951H29.3589L29.6183 22.2796H29.8873L31.1993 17.667H30.9291L31.2061 16.6904H32.6106L32.5495 17.0503C32.5495 17.0503 33.2653 16.6904 33.7841 16.6904H35.52L35.2443 17.667H34.9726L33.6605 22.2796H33.9335L33.6768 23.1951H33.4038ZM39.2226 19.2819H37.8616L37.6267 20.105H38.9876L38.7323 20.9879H37.2178L36.8755 21.5054H37.6131L37.7856 22.5458C37.8059 22.6491 37.897 22.698 38.0532 22.698H38.2841L38.0409 23.5537H37.2246C36.8035 23.5754 36.5862 23.4355 36.5672 23.1272L36.3689 22.1818L35.6952 23.191C35.5376 23.4763 35.2891 23.6094 34.9604 23.5876H33.7135L33.9593 22.7319H34.3451C34.504 22.7319 34.6412 22.6599 34.7594 22.5187L35.8147 20.992H34.451L34.7064 20.1091H36.1828L36.4192 19.2874H34.94L35.194 18.4018H39.4725L39.2226 19.2819ZM40.8254 15.529C40.3853 16.4717 39.9629 17.0204 39.7143 17.2758C39.4644 17.5298 38.9741 18.1165 37.7883 18.0731L37.8915 17.3546C38.8871 17.0489 39.4264 15.6662 39.7347 15.0523L39.368 10.5401L40.1354 10.5293H40.7805L40.8498 13.3599L42.0641 10.5293H43.292L40.8254 15.529Z" fill="#BFDFFF"/>
</svg>
